<svg xmlns="http://www.w3.org/2000/svg" width="133.962" height="134.001" viewBox="0 0 133.962 134.001">
  <g id="cancel" transform="translate(-0.002 0)">
    <path id="Path_338" data-name="Path 338" d="M114.2,19.745a67.041,67.041,0,1,0,0,94.432,66.278,66.278,0,0,0,0-94.432ZM66.982,118.105A51.141,51.141,0,0,1,25.344,37.343L66.982,78.981,96.6,108.6a51.065,51.065,0,0,1-29.618,9.507ZM108.62,96.579,66.982,54.941,37.364,25.323A51.1,51.1,0,0,1,108.62,96.579Zm0,0" transform="translate(0 0)" fill="#ff6c6c"/>
    <path id="Path_339" data-name="Path 339" d="M292.065,30.822a51.059,51.059,0,0,1,5.5,65.756L255.926,54.94v24.04L285.544,108.6a51.065,51.065,0,0,1-29.618,9.507V134a67,67,0,0,0,0-134V15.816a51.252,51.252,0,0,1,36.139,15.006Zm0,0" transform="translate(-188.944 0)" fill="#ff4949"/>
  </g>
</svg>
