<svg id="Group_40" data-name="Group 40" xmlns="http://www.w3.org/2000/svg" xmlns:xlink="http://www.w3.org/1999/xlink" width="243.83" height="232.128" viewBox="0 0 243.83 232.128">
  <defs>
    <linearGradient id="linear-gradient" x1="0.509" y1="0.997" x2="0.509" y2="-0.003" gradientUnits="objectBoundingBox">
      <stop offset="0" stop-color="gray" stop-opacity="0.251"/>
      <stop offset="0.54" stop-color="gray" stop-opacity="0.122"/>
      <stop offset="1" stop-color="gray" stop-opacity="0.102"/>
    </linearGradient>
    <linearGradient id="linear-gradient-2" x1="0.813" y1="0.841" x2="0.813" y2="-0.159" xlink:href="#linear-gradient"/>
    <linearGradient id="linear-gradient-3" x1="1.78" y1="0.849" x2="1.78" y2="-0.151" xlink:href="#linear-gradient"/>
    <linearGradient id="linear-gradient-4" x1="0.5" y1="1" x2="0.5" y2="0" xlink:href="#linear-gradient"/>
    <linearGradient id="linear-gradient-6" x1="0.5" y1="0.999" x2="0.5" y2="-0.001" xlink:href="#linear-gradient"/>
  </defs>
  <rect id="Rectangle_90" data-name="Rectangle 90" width="129.923" height="179.511" transform="matrix(0.978, -0.21, 0.21, 0.978, 20.549, 40.28)" fill="#e0e0e0"/>
  <g id="Group_36" data-name="Group 36" transform="translate(23.334 16.452)" opacity="0.5">
    <rect id="Rectangle_91" data-name="Rectangle 91" width="125.532" height="173.443" transform="matrix(0.978, -0.21, 0.21, 0.978, 0, 26.335)" fill="url(#linear-gradient)"/>
  </g>
  <rect id="Rectangle_92" data-name="Rectangle 92" width="122.336" height="169.611" transform="matrix(0.978, -0.21, 0.21, 0.978, 25.163, 43.7)" fill="#fafafa"/>
  <rect id="Rectangle_93" data-name="Rectangle 93" width="60.689" height="14.701" transform="matrix(0.978, -0.21, 0.21, 0.978, 53.914, 30.011)" fill="url(#linear-gradient-2)"/>
  <path id="Path_297" data-name="Path 297" d="M445.159,91.459a8.687,8.687,0,1,0,10.108,6.713A8.586,8.586,0,0,0,445.159,91.459Zm2.875,13.408a5.012,5.012,0,1,1,3.734-5.946,4.953,4.953,0,0,1-3.734,5.946Z" transform="translate(-364.59 -81.854)" fill="url(#linear-gradient-3)"/>
  <rect id="Rectangle_94" data-name="Rectangle 94" width="59.411" height="14.053" transform="matrix(0.978, -0.21, 0.21, 0.978, 54.407, 29.26)" fill="#6c63ff"/>
  <path id="Path_298" data-name="Path 298" d="M445.418,91.459a8.3,8.3,0,1,0,9.861,6.377A8.3,8.3,0,0,0,445.418,91.459Zm2.747,12.813a4.792,4.792,0,1,1,3.681-5.69,4.792,4.792,0,0,1-3.681,5.69Z" transform="translate(-364.849 -81.853)" fill="#6c63ff"/>
  <rect id="Rectangle_95" data-name="Rectangle 95" width="129.923" height="179.511" transform="translate(76.669 34.756)" fill="#e0e0e0"/>
  <g id="Group_37" data-name="Group 37" transform="translate(78.866 37.792)" opacity="0.5">
    <rect id="Rectangle_96" data-name="Rectangle 96" width="125.532" height="173.443" fill="url(#linear-gradient-4)"/>
  </g>
  <rect id="Rectangle_97" data-name="Rectangle 97" width="122.336" height="169.611" transform="translate(80.462 39.07)" fill="#fff"/>
  <rect id="Rectangle_98" data-name="Rectangle 98" width="60.689" height="14.701" transform="translate(111.446 31.715)" fill="url(#linear-gradient-4)"/>
  <path id="Path_299" data-name="Path 299" d="M646.8,118a8.689,8.689,0,1,0,8.485,8.687A8.588,8.588,0,0,0,646.8,118Zm0,13.7a5.012,5.012,0,1,1,4.893-5.012,4.953,4.953,0,0,1-4.893,4.989Z" transform="translate(-505.014 -100.635)" fill="url(#linear-gradient-6)"/>
  <rect id="Rectangle_99" data-name="Rectangle 99" width="59.411" height="14.053" transform="translate(112.085 31.085)" fill="#6c63ff"/>
  <path id="Path_300" data-name="Path 300" d="M647.233,118a8.3,8.3,0,1,0,8.3,8.3A8.3,8.3,0,0,0,647.233,118Zm0,13.1a4.817,4.817,0,1,0,0-.015Z" transform="translate(-505.443 -100.635)" fill="#6c63ff"/>
  <g id="Group_38" data-name="Group 38" transform="translate(1.929 219.119)" opacity="0.5">
    <rect id="Rectangle_100" data-name="Rectangle 100" width="1.118" height="6.341" transform="translate(2.61)" fill="#47e6b1"/>
    <rect id="Rectangle_101" data-name="Rectangle 101" width="1.118" height="6.341" transform="translate(6.341 2.613) rotate(90)" fill="#47e6b1"/>
  </g>
  <g id="Group_39" data-name="Group 39" transform="translate(131.614)" opacity="0.5">
    <rect id="Rectangle_102" data-name="Rectangle 102" width="1.118" height="6.341" transform="translate(2.61)" fill="#47e6b1"/>
    <rect id="Rectangle_103" data-name="Rectangle 103" width="1.118" height="6.341" transform="translate(6.341 2.61) rotate(90)" fill="#47e6b1"/>
  </g>
  <path id="Path_301" data-name="Path 301" d="M950.172,826.157a1.37,1.37,0,0,1-.764-1.656.661.661,0,0,0,.03-.152h0a.687.687,0,0,0-1.234-.455h0a.66.66,0,0,0-.077.134,1.371,1.371,0,0,1-1.656.764.658.658,0,0,0-.152-.03h0a.687.687,0,0,0-.455,1.234h0a.665.665,0,0,0,.134.077,1.371,1.371,0,0,1,.764,1.656.662.662,0,0,0-.03.152h0a.687.687,0,0,0,1.234.455h0a.658.658,0,0,0,.077-.134,1.37,1.37,0,0,1,1.656-.764.666.666,0,0,0,.152.03h0a.687.687,0,0,0,.455-1.234h0a.662.662,0,0,0-.134-.077Z" transform="translate(-720.936 -596.481)" fill="#4d8af0" opacity="0.5"/>
  <path id="Path_302" data-name="Path 302" d="M315.762,621.1a1.371,1.371,0,0,1-.764-1.656.66.66,0,0,0,.03-.152h0a.687.687,0,0,0-1.234-.455h0a.662.662,0,0,0-.077.134,1.37,1.37,0,0,1-1.656.764.658.658,0,0,0-.152-.03h0a.687.687,0,0,0-.455,1.234h0a.661.661,0,0,0,.134.077,1.37,1.37,0,0,1,.764,1.656.658.658,0,0,0-.03.152h0a.687.687,0,0,0,1.234.455h0a.662.662,0,0,0,.077-.134,1.37,1.37,0,0,1,1.656-.764.658.658,0,0,0,.152.03h0a.687.687,0,0,0,.455-1.234h0A.661.661,0,0,0,315.762,621.1Z" transform="translate(-275.131 -452.383)" fill="#fdd835" opacity="0.5"/>
  <path id="Path_303" data-name="Path 303" d="M844.172,121.777a1.371,1.371,0,0,1-.764-1.656.658.658,0,0,0,.03-.152h0a.687.687,0,0,0-1.234-.455h0a.659.659,0,0,0-.077.134,1.371,1.371,0,0,1-1.656.764.66.66,0,0,0-.152-.03h0a.687.687,0,0,0-.455,1.234h0a.661.661,0,0,0,.134.077,1.37,1.37,0,0,1,.764,1.656.662.662,0,0,0-.03.152h0a.687.687,0,0,0,1.234.455h0a.662.662,0,0,0,.077-.134,1.37,1.37,0,0,1,1.656-.764.66.66,0,0,0,.152.03h0a.687.687,0,0,0,.455-1.234h0a.66.66,0,0,0-.134-.077Z" transform="translate(-646.449 -101.507)" fill="#fdd835" opacity="0.5"/>
  <circle id="Ellipse_43" data-name="Ellipse 43" cx="2.239" cy="2.239" r="2.239" transform="translate(239.353 91.251)" fill="#f55f44" opacity="0.5"/>
  <circle id="Ellipse_44" data-name="Ellipse 44" cx="2.239" cy="2.239" r="2.239" transform="translate(66.356 219.734)" fill="#f55f44" opacity="0.5"/>
  <circle id="Ellipse_45" data-name="Ellipse 45" cx="2.239" cy="2.239" r="2.239" transform="translate(216.363 139.638)" fill="#f55f44" opacity="0.5"/>
  <circle id="Ellipse_46" data-name="Ellipse 46" cx="2.239" cy="2.239" r="2.239" transform="translate(23.667 26.405)" fill="#4d8af0" opacity="0.5"/>
  <circle id="Ellipse_47" data-name="Ellipse 47" cx="2.239" cy="2.239" r="2.239" transform="translate(0 87.472)" fill="#47e6b1" opacity="0.5"/>
</svg>
