<svg id="Help" xmlns="http://www.w3.org/2000/svg" width="81" height="81" viewBox="0 0 81 81">
  <circle id="Ellipse_29" data-name="Ellipse 29" cx="40.5" cy="40.5" r="40.5" fill="#e2e2e2"/>
  <g id="support" transform="translate(17 20)">
    <circle id="Ellipse_36" data-name="Ellipse 36" cx="22" cy="22" r="22" transform="translate(1.666)" fill="#f24976"/>
    <rect id="Rectangle_87" data-name="Rectangle 87" width="8.277" height="4.107" transform="translate(19.528 33.808)" fill="#445ea0"/>
    <rect id="Rectangle_88" data-name="Rectangle 88" width="1.834" height="4.107" transform="translate(19.528 33.808)" fill="#2e4c89"/>
    <path id="Path_193" data-name="Path 193" d="M183.375,429.624a.411.411,0,0,1-.409.41H167.311a.411.411,0,0,1-.41-.41v-2.053a.411.411,0,0,1,.41-.41h15.655a.411.411,0,0,1,.409.41v2.053Z" transform="translate(-151.472 -389.339)" fill="#293d7c"/>
    <path id="Path_194" data-name="Path 194" d="M168.736,429.624v-2.053a.411.411,0,0,1,.41-.41h-1.834a.411.411,0,0,0-.41.41v2.053a.411.411,0,0,0,.41.41h1.834A.411.411,0,0,1,168.736,429.624Z" transform="translate(-151.472 -389.339)" fill="#1a2b63"/>
    <path id="Path_195" data-name="Path 195" d="M46.8,42.867H.536A.538.538,0,0,0,0,43.4V73.935a.538.538,0,0,0,.536.536H32.381v-1.6a.3.3,0,0,1,.3-.3h1.247a.674.674,0,0,0,.6-.429l.235-.566a.663.663,0,0,0-.124-.723l-.88-.873a.294.294,0,0,1,0-.416l1.6-1.583a.3.3,0,0,1,.421,0l.88.873a.67.67,0,0,0,.465.179.61.61,0,0,0,.265-.058l.573-.235a.669.669,0,0,0,.425-.6V66.91a.3.3,0,0,1,.3-.3H40.94a.3.3,0,0,1,.3.3v1.231a.671.671,0,0,0,.43.6l.574.235a.6.6,0,0,0,.26.055.671.671,0,0,0,.466-.179l.88-.873a.3.3,0,0,1,.421,0l1.6,1.583a.294.294,0,0,1,0,.416l-.88.873a.665.665,0,0,0-.121.728l.235.565a.672.672,0,0,0,.6.424h1.247a.3.3,0,0,1,.3.3v1.367a.532.532,0,0,0,.092-.3V43.4A.538.538,0,0,0,46.8,42.867Z" transform="translate(0 -40.57)" fill="#293d7c"/>
    <path id="Path_196" data-name="Path 196" d="M25.473,120.879a.323.323,0,0,0,.322.322H57.014l1.459-1.447a.3.3,0,0,1,.421,0l.88.873a.67.67,0,0,0,.465.179.61.61,0,0,0,.265-.058l.573-.235a.669.669,0,0,0,.425-.6v-1.231a.3.3,0,0,1,.3-.3h2.259a.3.3,0,0,1,.3.3v1.231a.671.671,0,0,0,.43.6l.574.235a.6.6,0,0,0,.26.055.671.671,0,0,0,.466-.179l.88-.873a.3.3,0,0,1,.421,0l.711.706V99.913H25.473Z" transform="translate(-23.118 -92.343)" fill="#fff"/>
    <path id="Path_197" data-name="Path 197" d="M27.307,120.879V99.913H25.473v20.966a.323.323,0,0,0,.322.322h1.834A.323.323,0,0,1,27.307,120.879Z" transform="translate(-23.118 -92.343)" fill="#d9eafc"/>
    <g id="Group_19" data-name="Group 19" transform="translate(6.49 9.33)">
      <path id="Path_198" data-name="Path 198" d="M174.866,212.321a2.934,2.934,0,0,0-3.127-.661l-3.537-3.537-.711.711a.093.093,0,0,0-.027.075.816.816,0,0,1-.161.579.093.093,0,0,0,0,.105.771.771,0,0,1-.048.937l2.809,2.809a2.93,2.93,0,0,0,3.426,3.9.148.148,0,0,0,.07-.249l-1.8-1.8,1.836-1.836,1.8,1.8a.148.148,0,0,0,.249-.07A2.905,2.905,0,0,0,174.866,212.321Z" transform="translate(-158.28 -199.879)" fill="#ff9518"/>
      <path id="Path_199" data-name="Path 199" d="M77.482,127.244a.855.855,0,0,1,.455.134.093.093,0,0,0,.105,0,.809.809,0,0,1,.493-.165.83.83,0,0,1,.086,0h.01a.093.093,0,0,0,.065-.027l.711-.711-3.537-3.537a2.93,2.93,0,0,0-3.426-3.9.149.149,0,0,0-.07.039.148.148,0,0,0,0,.21l1.8,1.8-1.836,1.836-1.8-1.8a.148.148,0,0,0-.145-.038.148.148,0,0,0-.1.108,2.93,2.93,0,0,0,3.9,3.426L77,127.426A.705.705,0,0,1,77.482,127.244Z" transform="translate(-70.204 -118.951)" fill="#ff9518"/>
    </g>
    <circle id="Ellipse_37" data-name="Ellipse 37" cx="1.448" cy="1.448" r="1.448" transform="translate(22.218 29.921)" fill="#445ea0"/>
    <path id="Path_200" data-name="Path 200" d="M67.774,72.461H25.795a.323.323,0,0,0-.322.322v2.308H68.1V72.783A.323.323,0,0,0,67.774,72.461Z" transform="translate(-23.118 -67.429)" fill="#5dc1d8"/>
    <path id="Path_201" data-name="Path 201" d="M27.629,72.461H25.795a.323.323,0,0,0-.322.322v2.308h1.834V72.783A.323.323,0,0,1,27.629,72.461Z" transform="translate(-23.118 -67.429)" fill="#28a5a5"/>
    <path id="Path_202" data-name="Path 202" d="M355.271,313.271a.39.39,0,0,0,.388.388h2.259a.39.39,0,0,0,.388-.388V312.04a.583.583,0,0,1,.368-.514l.579-.237a.587.587,0,0,1,.625.1l.88.873a.394.394,0,0,0,.551,0l1.6-1.584a.386.386,0,0,0,0-.547l-.88-.873a.577.577,0,0,1-.1-.622l.237-.571a.586.586,0,0,1,.516-.367h1.247a.389.389,0,0,0,.389-.388v-2.236a.39.39,0,0,0-.389-.389h-1.247a.586.586,0,0,1-.516-.367l-.237-.571a.577.577,0,0,1,.1-.622l.88-.873a.386.386,0,0,0,0-.547l-1.6-1.583a.393.393,0,0,0-.551,0l-.88.873a.588.588,0,0,1-.625.1l-.579-.237a.583.583,0,0,1-.368-.514v-1.231a.39.39,0,0,0-.388-.389h-2.259a.39.39,0,0,0-.388.389v1.231a.583.583,0,0,1-.368.514l-.579.237a.587.587,0,0,1-.625-.1l-.88-.873a.393.393,0,0,0-.552,0l-1.6,1.583a.386.386,0,0,0,0,.547l.88.873a.577.577,0,0,1,.1.622l-.237.571a.586.586,0,0,1-.516.367h-1.247a.39.39,0,0,0-.389.389v2.236a.389.389,0,0,0,.389.388H350.9a.586.586,0,0,1,.516.367l.237.571a.577.577,0,0,1-.1.622l-.88.873a.386.386,0,0,0,0,.547l1.6,1.584a.394.394,0,0,0,.552,0l.88-.873a.587.587,0,0,1,.625-.1l.579.237a.583.583,0,0,1,.368.514v1.231Z" transform="translate(-316.978 -272.78)" fill="#ff9518"/>
    <path id="Path_203" data-name="Path 203" d="M395.094,347.8a3.593,3.593,0,1,1,3.62-3.593A3.606,3.606,0,0,1,395.094,347.8Z" transform="translate(-355.283 -310.795)" fill="#ffaf10"/>
    <path id="Path_204" data-name="Path 204" d="M392.575,344.21a3.6,3.6,0,0,1,3.069-3.552,3.678,3.678,0,0,0-.551-.041,3.593,3.593,0,1,0,0,7.185,3.678,3.678,0,0,0,.551-.041A3.6,3.6,0,0,1,392.575,344.21Z" transform="translate(-355.283 -310.794)" fill="#ff9518"/>
    <path id="Path_205" data-name="Path 205" d="M389.373,342.664a4.176,4.176,0,1,1,4.2-4.176A4.194,4.194,0,0,1,389.373,342.664Zm0-7.186a3.01,3.01,0,1,0,3.038,3.01A3.027,3.027,0,0,0,389.373,335.478Z" transform="translate(-349.562 -305.073)" fill="#db722c"/>
    <path id="Path_206" data-name="Path 206" d="M415.61,366.086a1.519,1.519,0,1,1,1.53-1.519A1.525,1.525,0,0,1,415.61,366.086Z" transform="translate(-375.8 -331.152)" fill="#ffaf10"/>
    <path id="Path_207" data-name="Path 207" d="M415.181,364.568a1.518,1.518,0,0,1,.98-1.416,1.519,1.519,0,1,0,0,2.832A1.518,1.518,0,0,1,415.181,364.568Z" transform="translate(-375.8 -331.153)" fill="#ff9518"/>
    <path id="Path_208" data-name="Path 208" d="M409.889,360.951a2.1,2.1,0,1,1,2.113-2.1A2.11,2.11,0,0,1,409.889,360.951Zm0-3.038a.936.936,0,1,0,.947.936A.943.943,0,0,0,409.889,357.913Z" transform="translate(-370.078 -325.434)" fill="#db722c"/>
    <g id="Group_20" data-name="Group 20" transform="translate(12.7 9.844)">
      <path id="Path_209" data-name="Path 209" d="M137.661,220.536l1,1a.827.827,0,0,1,.185.283l.434-.434a.9.9,0,0,1-.278-.19l-1-1a.906.906,0,0,1-.19-.278l-.434.434A.825.825,0,0,1,137.661,220.536Z" transform="translate(-137.378 -211.098)" fill="#445ea0"/>
      <path id="Path_210" data-name="Path 210" d="M162.744,125.091l-.519-.519a.223.223,0,0,0-.238-.04l-1.157.565a.5.5,0,0,0-.2.2l-.514,1.055-5.82,5.82a.908.908,0,0,0-.719.242.91.91,0,0,1,.185.141l1,1a.914.914,0,0,1,.142.184.908.908,0,0,0,.241-.719l5.82-5.82,1.055-.515a.5.5,0,0,0,.2-.2l.565-1.157A.223.223,0,0,0,162.744,125.091Z" transform="translate(-152.079 -124.513)" fill="#445ea0"/>
    </g>
    <path id="Path_211" data-name="Path 211" d="M142.839,210.19a.888.888,0,0,1-1.248-.059l-1-1a.845.845,0,1,1,1.189-1.189l1,1A.888.888,0,0,1,142.839,210.19Z" transform="translate(-127.331 -190.122)" fill="#293d7c"/>
    <g id="Group_21" data-name="Group 21" transform="translate(26.908 10.627)">
      <path id="Path_212" data-name="Path 212" d="M303.944,134.37H291.753a.693.693,0,1,1,0-1.387h12.191a.693.693,0,0,1,0,1.387Z" transform="translate(-291.06 -132.983)" fill="#69cdff"/>
      <path id="Path_213" data-name="Path 213" d="M303.944,158.858H291.753a.693.693,0,1,1,0-1.387h12.191a.693.693,0,0,1,0,1.387Z" transform="translate(-291.06 -155.207)" fill="#69cdff"/>
      <path id="Path_214" data-name="Path 214" d="M303.944,183.345H291.753a.693.693,0,1,1,0-1.387h12.191a.693.693,0,0,1,0,1.387Z" transform="translate(-291.06 -177.43)" fill="#69cdff"/>
    </g>
    <g id="Group_22" data-name="Group 22" transform="translate(26.908 18.947)">
      <path id="Path_215" data-name="Path 215" d="M303.944,224.366H291.753a.693.693,0,1,1,0-1.387h12.191a.693.693,0,0,1,0,1.387Z" transform="translate(-291.06 -222.979)" fill="#37c47a"/>
      <path id="Path_216" data-name="Path 216" d="M303.944,248.853H291.753a.693.693,0,0,1,0-1.387h12.191a.693.693,0,0,1,0,1.387Z" transform="translate(-291.06 -245.202)" fill="#37c47a"/>
      <path id="Path_217" data-name="Path 217" d="M297.811,273.34h-6.058a.693.693,0,1,1,0-1.387h6.058a.693.693,0,0,1,0,1.387Z" transform="translate(-291.06 -267.426)" fill="#37c47a"/>
    </g>
    <path id="Path_218" data-name="Path 218" d="M80.273,229.852a.927.927,0,0,1-1.307,0l-1-1a.927.927,0,0,1,0-1.307l4.289-4.289a.927.927,0,0,1,1.307,0l1,1a.927.927,0,0,1,0,1.307Z" transform="translate(-70.513 -204.037)" fill="#293d7c"/>
    <g id="Group_23" data-name="Group 23" transform="translate(7.183 17.53)">
      <path id="Path_219" data-name="Path 219" d="M79.522,228.85a.927.927,0,0,1,0-1.307l4.164-4.164-.125-.125a.927.927,0,0,0-1.307,0l-4.289,4.289a.927.927,0,0,0,0,1.307l1,1a.927.927,0,0,0,1.307,0l.125-.125Z" transform="translate(-77.695 -221.566)" fill="#1a2b63"/>
      <path id="Path_220" data-name="Path 220" d="M141.132,208.482a.888.888,0,0,1,1.248.059l-.6-.6a.845.845,0,1,0-1.189,1.189l.6.6A.888.888,0,0,1,141.132,208.482Z" transform="translate(-134.514 -207.652)" fill="#1a2b63"/>
    </g>
  </g>
</svg>
