<svg xmlns="http://www.w3.org/2000/svg" xmlns:xlink="http://www.w3.org/1999/xlink" width="280.474" height="200" viewBox="0 0 280.474 200">
  <defs>
    <linearGradient id="linear-gradient" x1="0.5" y1="1" x2="0.5" gradientUnits="objectBoundingBox">
      <stop offset="0" stop-color="gray" stop-opacity="0.251"/>
      <stop offset="0.54" stop-color="gray" stop-opacity="0.122"/>
      <stop offset="1" stop-color="gray" stop-opacity="0.102"/>
    </linearGradient>
    <linearGradient id="linear-gradient-2" x1="0.5" y1="1" x2="0.5" xlink:href="#linear-gradient"/>
  </defs>
  <g id="Group_141" data-name="Group 141" transform="translate(-39.526 -172)">
    <g id="Group_4" data-name="Group 4" transform="translate(39.56 171.997)">
      <path id="Path_28" data-name="Path 28" d="M357.9,174.385c-6.5,13.358-19.684,22.291-33.352,28.181a127.131,127.131,0,0,1-58.649,9.749q-5.253-.349-10.475-1.114A132.421,132.421,0,0,1,220.4,201.034q-4.826-2.167-9.456-4.731a121,121,0,0,1-14.78-9.637q-1.767-1.345-3.486-2.759c-.795-.653-1.582-1.321-2.381-1.969a30.052,30.052,0,0,0-5.359-3.639,19.168,19.168,0,0,0-1.794-.79c-6.131-2.325-13.2-1.448-19.584.366-4.855,1.379-9.588,3.268-14.438,4.616a48.041,48.041,0,0,1-6.578,1.394,35.111,35.111,0,0,1-14.78-1.294l-.408-.127q-1.027-.322-2.036-.7l-.408-.156q-.978-.375-1.914-.807l-.408-.185q-.978-.453-1.914-.958c-.225-.117-.447-.244-.667-.363a40,40,0,0,1-9.573-7.431c-.081-.08-.156-.163-.244-.244-.389-.419-.77-.846-1.139-1.282-.137-.161-.274-.322-.408-.487q-.658-.8-1.269-1.635c-.061-.08-.12-.163-.178-.244a35.208,35.208,0,0,1-4.122-7.431c-.034-.08-.066-.163-.1-.244q-.489-1.255-.892-2.552c-.11-.361-.215-.731-.308-1.092-.032-.107-.061-.217-.088-.324-1.349-5.3-1.5-10.8-1.5-16.276v-1.913c.039-8.854.176-17.86,1.486-26.592a1.106,1.106,0,0,1,.027-.18,82.828,82.828,0,0,1,1.787-8.73,64.269,64.269,0,0,1,3.009-8.847,82.154,82.154,0,0,1,12.265-19.461c12.26-15,28.338-27.594,47.157-32.307A69.56,69.56,0,0,1,225.093,54.79c4.987,3.958,9.468,8.645,15.069,11.679,4.889,2.642,10.612,3.736,15.848,1.657,4.327-1.718,7.143-2.571,12-2.31a100.875,100.875,0,0,1,29.423,6.144c.381.139.763.283,1.142.427,24.62,9.391,45.783,28.047,56.783,52.022q.438.951.848,1.916C362.768,141.6,365.139,159.5,357.9,174.385Z" transform="translate(-81.9 -40.04)" fill="#6c63ff" opacity="0.1"/>
      <ellipse id="Ellipse_2" data-name="Ellipse 2" cx="21.652" cy="3.478" rx="21.652" ry="3.478" transform="translate(8.185 174.182)" fill="#6c63ff" opacity="0.1"/>
      <ellipse id="Ellipse_3" data-name="Ellipse 3" cx="38.391" cy="3.728" rx="38.391" ry="3.728" transform="translate(184.825 192.547)" fill="#6c63ff" opacity="0.1"/>
      <rect id="Rectangle_66" data-name="Rectangle 66" width="232.221" height="132.033" rx="12.49" transform="translate(28.817 26.429)" fill="url(#linear-gradient)"/>
      <rect id="Rectangle_67" data-name="Rectangle 67" width="231.507" height="129.737" rx="12.49" transform="translate(29.187 28.286)" fill="#fff"/>
      <rect id="Rectangle_68" data-name="Rectangle 68" width="231.507" height="129.737" rx="12.49" transform="translate(29.187 28.286)" fill="#fff"/>
      <rect id="Rectangle_69" data-name="Rectangle 69" width="231.507" height="129.737" rx="12.49" transform="translate(29.187 28.286)" fill="#fff" opacity="0.04"/>
      <path id="Path_29" data-name="Path 29" d="M374.952,149.29H145.8a1.178,1.178,0,0,0-1.175,1.18v4.986h231.5V150.47a1.178,1.178,0,0,0-1.166-1.18Z" transform="translate(-115.433 -122.493)" fill="#5a5773"/>
      <g id="buttons" transform="translate(32.233 28.286)">
        <circle id="Ellipse_4" data-name="Ellipse 4" cx="1.594" cy="1.594" r="1.594" transform="translate(0)" fill="#fff"/>
        <circle id="Ellipse_5" data-name="Ellipse 5" cx="1.594" cy="1.594" r="1.594" transform="translate(4.292)" fill="#fff"/>
        <circle id="Ellipse_6" data-name="Ellipse 6" cx="1.594" cy="1.594" r="1.594" transform="translate(8.584)" fill="#fff"/>
      </g>
      <rect id="Rectangle_70" data-name="Rectangle 70" width="62.358" height="5.293" transform="translate(48.137 44.311)" fill="#6c63ff" opacity="0.2"/>
      <rect id="Rectangle_71" data-name="Rectangle 71" width="194.091" height="81.418" transform="translate(47.465 65.181)" fill="#5a5773" opacity="0.1"/>
      <path id="Path_30" data-name="Path 30" d="M566.865,268.633h-3.323v-6.455A13.273,13.273,0,1,0,537,262v6.634h-3.316a5.548,5.548,0,0,0-5.531,5.531v26.542a5.548,5.548,0,0,0,5.531,5.531h33.184a5.545,5.545,0,0,0,5.528-5.531V274.164A5.545,5.545,0,0,0,566.865,268.633ZM552.21,285.888v9.506a1.984,1.984,0,0,1-1.839,1.992,1.94,1.94,0,0,1-2.031-1.938v-9.565a4.415,4.415,0,1,1,3.87,0Zm7.466-17.254H540.867V262a9.4,9.4,0,1,1,18.8,0Z" transform="translate(-405.343 -197.931)" opacity="0.1"/>
      <path id="Path_31" data-name="Path 31" d="M566.865,266.633h-3.323v-6.455A13.273,13.273,0,1,0,537,260v6.634h-3.316a5.548,5.548,0,0,0-5.531,5.531v26.542a5.548,5.548,0,0,0,5.531,5.531h33.184a5.545,5.545,0,0,0,5.528-5.531V272.164A5.545,5.545,0,0,0,566.865,266.633ZM552.21,283.888v9.506a1.984,1.984,0,0,1-1.839,1.992,1.94,1.94,0,0,1-2.031-1.938v-9.565a4.415,4.415,0,1,1,3.87,0Zm7.466-17.254H540.867V260a9.4,9.4,0,1,1,18.8,0Z" transform="translate(-405.343 -196.418)" fill="#6c63ff"/>
      <rect id="Rectangle_72" data-name="Rectangle 72" width="19.646" height="4.638" transform="translate(221.911 57.623)" fill="#5a5773" opacity="0.1"/>
      <path id="Path_32" data-name="Path 32" d="M894.9,426.64a6.981,6.981,0,0,0-.657-1.866l-2.943-4.4h.017a7.414,7.414,0,0,1,0-3.291c.464-1.084-1.653-3.75-1.653-3.75a1.582,1.582,0,0,1,.415-1.494c.672-.824-.415-3.237-.415-3.237s-.515-5.04-.567-5.81-.466-5.038-.466-5.038l-.981-9.048L885.9,364.73l-.032-.449c.216-.105.331-.172.331-.172l-.348-13.259.3-.272c2.634-2.384,8.709-7.9,8.648-8.023s-.736-9.215-.814-11.491a13.693,13.693,0,0,0-1.045-4.7c-.152-.3-.591-2.291-.773-3.132-.049-.231-.081-.375-.081-.375s-1.781-3.394-1.626-4.937.464-2.7-3.333-3.237a14.713,14.713,0,0,1-5.087-1.773,14.47,14.47,0,0,0-3.645-1.825s-1.064-1.962-1.805-1.3a10.3,10.3,0,0,1-.7-2.185l-.022-.137a7.228,7.228,0,0,0,2.855-4.086c.025-.093.044-.189.066-.282a.8.8,0,0,0,.228.042c.645,0,1.042-.719,1.646-.947.245-.1.547-.11.736-.3a.719.719,0,0,0,.162-.542,1.107,1.107,0,0,0,0-.2c0-.024,0-.047,0-.071v.025c-.164-.893-.856-1.685-.78-2.592.074-.854.824-1.6.763-2.435a1.329,1.329,0,0,0-.017-.2v.029a2.1,2.1,0,0,0-.491-.868,2.786,2.786,0,0,0-1.01-.849c-.341-.15-.736-.184-1.055-.363-.937-.51-.934-1.839-1.491-2.747a2.431,2.431,0,0,0-2.274-1.126c-.7.069-1.327.439-2.016.559a5.272,5.272,0,0,1-2.794-.491,7.69,7.69,0,0,0-2.757-.736,2.341,2.341,0,0,0-2.286,1.4c-.154.491-.078,1.018-.2,1.516a3.3,3.3,0,0,1-1.778,1.942c-.49.272-1.074.584-1.226,1.1v-.039a.938.938,0,0,0-.024.125.912.912,0,0,0,0,.164,3.09,3.09,0,0,0,.311,1.025,2.828,2.828,0,0,1-.015,1.977c-.182.466-.491.876-.667,1.339a2.638,2.638,0,0,0-.162.672v-.039a2.72,2.72,0,0,0,0,.314,2.208,2.208,0,0,0,.245,1.03,1.85,1.85,0,0,0,1.1.925c.49.113.8-.368,1.315-.245a2.064,2.064,0,0,1,.272.086c.017.11.034.221.054.329a7.208,7.208,0,0,0,2.487,4.211,1.577,1.577,0,0,0,.027.179h0a16.463,16.463,0,0,1,.2,2.958s-.773-1.131-1.832,1.052a22.258,22.258,0,0,1-3.718,1.776c-.954.181-4.341,1.361-4.341,1.361a2.987,2.987,0,0,1-1.756.567c-1.057,0-1.935,2.313-1.808,3.571s-.076,2.185-1.06,2.237-.446,2.045-.439,2.08l-.091.429c-.191.878-.608,2.762-.755,3.056a13.733,13.733,0,0,0-1.047,4.7c-.076,2.276-.736,11.336-.812,11.491-.052.1,4.111,3.9,7.037,6.563l.424.383-1.347,12.577a3.358,3.358,0,0,0,1.383,2.453c0,.147,0,.3-.015.451a15.721,15.721,0,0,1-.412,3.718c-.412.824-.309,5.244-.309,5.244s-.414,9-.93,9.975a6.805,6.805,0,0,0-.466,3.434c.155.4-.517,11.206-.517,11.206l-.515,4.834s.155,4.626-.311,4.729-.724,3.291-.724,3.291-1.651,2.261-.93,3.083-.105,1.185-.182,1.388-1.575.981-.49,3.856a.837.837,0,0,0,.034.083c-1.015,1.41-4.233,5.96-4.037,6.652a1.822,1.822,0,0,0,.858,1.03c.758.454,2.058.665,4.125,0,3.434-1.106,3.188-1.9,3.188-1.9a1.457,1.457,0,0,1,1.447-1.388,4.064,4.064,0,0,0,2.48-1.413l-.167-.621-.228-.858c.027-.245.2-.674.981-.912,1.19-.361.878-2.622.878-2.622s-.1-2.364.412-2.673.311-4.216.311-4.216a28.972,28.972,0,0,1,1.393-4.731c.824-1.9,1.81-13.21,1.81-13.21a52.138,52.138,0,0,1,1.29-7.147,40.457,40.457,0,0,0,1.19-6.065s3.824-7.4,3.873-9.05c0,0,.491-1.543.981.154s1.869,5.759,1.869,5.759l1.342,4.986,1.6,7.454,1.035,6.274a9.756,9.756,0,0,0,.245,3.188c.4.824.981,2.722.672,3.083s.618,2.058.878,2.416,0,7.969,0,7.969,1.187,6.477,2.892,7.6a2.082,2.082,0,0,0,.378.2c-.025.7-.049,1.641-.017,2.131a.816.816,0,0,0,.054.321,8.964,8.964,0,0,0,2.274,1.594c.363,0,1.651.9,1.7,1.337s3.775,2.286,4.3,2.34,3.083.513,3.434-.206A1.189,1.189,0,0,0,894.9,426.64ZM885.759,334l.265.228s.272,2.122.466,2.757a5.323,5.323,0,0,1-.039,1.871,4.3,4.3,0,0,0,.272,1.349c.231.464-.466,1.472-.466,1.472h-.62l-.194-7.942Zm-18.451-23.712v-.047a.155.155,0,0,0-.007.047Zm-9.528,30.572a.9.9,0,0,1-.039-.655,1.965,1.965,0,0,0,.13-.363,5.62,5.62,0,0,0,.142-.981.069.069,0,0,0,0-.012,5.19,5.19,0,0,1-.037-1.859c.184-.6.464-2.757.464-2.757l.177-.15.41-.356a2.913,2.913,0,0,1,.029-.351,27.3,27.3,0,0,1,.044,4.027,5.971,5.971,0,0,0-.775,2.286,9.376,9.376,0,0,1-.159,1.908A3.91,3.91,0,0,1,857.78,340.859Z" transform="translate(-646.658 -229.241)" fill="url(#linear-gradient-2)"/>
      <path id="Path_33" data-name="Path 33" d="M936.1,358.7v3.051l-6.259,3.147s-6.215-3.76-4.682-5.256c.981-.947.792-3.547.527-5.334h0c-.154-1.04-.334-1.8-.334-1.8s11.164-3.188,9.477-.768a3.807,3.807,0,0,0-.419,2.894A13.145,13.145,0,0,0,936.1,358.7Z" transform="translate(-705.055 -275.048)" fill="#c37098"/>
      <path id="Path_34" data-name="Path 34" d="M868.132,445.27l-.807,9.938s-1.209-1.1-2.774-2.524c-2.9-2.646-7.022-6.431-6.973-6.531.076-.155.736-9.17.807-11.437a13.684,13.684,0,0,1,1.035-4.68,29.084,29.084,0,0,0,.736-3.044c.059-.272.1-.449.1-.449l1.354-.544s5.641,6.293,5.641,6.409-.385,4.949-.385,4.949l-.4.348-.174.15s-.27,2.112-.461,2.745a4.928,4.928,0,0,0,.037,1.849h0a5.707,5.707,0,0,1-.14.981,2.055,2.055,0,0,1-.13.361.9.9,0,0,0,.039.652,3.943,3.943,0,0,0,.422.807Z" transform="translate(-654.176 -331.938)" fill="#3f3d56"/>
      <path id="Path_35" data-name="Path 35" d="M1007.546,446.176c.059.12-5.957,5.612-8.565,7.983l-1.182,1.072-.8-9.938h2.073s.692-1,.461-1.459a4.266,4.266,0,0,1-.267-1.342,5.347,5.347,0,0,0,.037-1.862c-.191-.635-.461-2.744-.461-2.744l-.262-.226-.311-.272s-.385-4.834-.385-4.949,5.641-6.409,5.641-6.409l1.344.537s.029.145.078.375c.181.836.616,2.816.765,3.117a13.684,13.684,0,0,1,1.035,4.68C1006.811,437.006,1007.468,446.021,1007.546,446.176Z" transform="translate(-759.615 -331.961)" fill="#3f3d56"/>
      <path id="Path_36" data-name="Path 36" d="M1004.15,826.366c-.361.716-2.892.245-3.414.206s-4.211-1.9-4.263-2.33-1.329-1.329-1.687-1.329a8.967,8.967,0,0,1-2.252-1.587.783.783,0,0,1-.051-.319c-.054-.841.051-3.007.051-3.007l7.419.41,3.605,5.423a6.993,6.993,0,0,1,.652,1.857A1.226,1.226,0,0,1,1004.15,826.366Z" transform="translate(-756.194 -628.286)" fill="#3f3d56"/>
      <path id="Path_37" data-name="Path 37" d="M1004.15,826.366c-.361.716-2.892.245-3.414.206s-4.211-1.9-4.263-2.33-1.329-1.329-1.687-1.329a8.967,8.967,0,0,1-2.252-1.587.783.783,0,0,1-.051-.319c-.054-.841.051-3.007.051-3.007l7.419.41,3.605,5.423a6.993,6.993,0,0,1,.652,1.857A1.226,1.226,0,0,1,1004.15,826.366Z" transform="translate(-756.194 -628.286)" opacity="0.1"/>
      <path id="Path_38" data-name="Path 38" d="M1004.194,835.619c-.361.716-2.892.245-3.414.206s-4.211-1.9-4.263-2.33-1.329-1.329-1.687-1.329a8.967,8.967,0,0,1-2.252-1.587.783.783,0,0,1-.051-.319l2.4,1.521a10.141,10.141,0,0,1,1.945,1.562c.41.581,3.637,1.79,3.9,1.815a18.383,18.383,0,0,1,3.475-.216A1.226,1.226,0,0,1,1004.194,835.619Z" transform="translate(-756.239 -637.539)" opacity="0.1"/>
      <path id="Path_39" data-name="Path 39" d="M860.243,822.713a4.014,4.014,0,0,1-2.453,1.405,1.445,1.445,0,0,0-1.432,1.381s.245.795-3.147,1.9c-2.048.66-3.336.451-4.086,0a1.825,1.825,0,0,1-.851-1.025c-.231-.817,4.3-7.034,4.3-7.034l4.12-.245,2.943,1.329.451,1.685Z" transform="translate(-647.144 -629.108)" fill="#3f3d56"/>
      <path id="Path_40" data-name="Path 40" d="M860.243,822.713a4.014,4.014,0,0,1-2.453,1.405,1.445,1.445,0,0,0-1.432,1.381s.245.795-3.147,1.9c-2.048.66-3.336.451-4.086,0a1.825,1.825,0,0,1-.851-1.025c-.231-.817,4.3-7.034,4.3-7.034l4.12-.245,2.943,1.329.451,1.685Z" transform="translate(-647.144 -629.108)" opacity="0.1"/>
      <path id="Path_41" data-name="Path 41" d="M862.888,831.958a4.014,4.014,0,0,1-2.453,1.405A1.445,1.445,0,0,0,859,834.744s.245.795-3.147,1.9c-2.048.66-3.336.451-4.086,0,1.93-.2,6.2-1.42,6.622-1.842.513-.513,1.153-1.92,1.587-1.945a17.078,17.078,0,0,0,2.754-1.513Z" transform="translate(-649.789 -638.354)" fill="none"/>
      <path id="Path_42" data-name="Path 42" d="M862.888,831.958a4.014,4.014,0,0,1-2.453,1.405A1.445,1.445,0,0,0,859,834.744s.245.795-3.147,1.9c-2.048.66-3.336.451-4.086,0,1.93-.2,6.2-1.42,6.622-1.842.513-.513,1.153-1.92,1.587-1.945a17.078,17.078,0,0,0,2.754-1.513Z" transform="translate(-649.789 -638.354)" opacity="0.1"/>
      <path id="Path_43" data-name="Path 43" d="M902.793,630.935a7.379,7.379,0,0,0,0,3.274s-6.867.358-8.545-.768-2.865-7.574-2.865-7.574.245-7.571,0-7.929-1.177-2.045-.871-2.4-.245-2.251-.665-3.071a9.192,9.192,0,0,1-.245-3.171l-1.025-6.244-1.584-7.417-1.346-4.964s-1.381-4.042-1.849-5.729-.964-.155-.964-.155c-.049,1.638-3.836,9.006-3.836,9.006a40.534,40.534,0,0,1-1.177,6.036,52.383,52.383,0,0,0-1.28,7.113s-.981,11.255-1.79,13.149a29.006,29.006,0,0,0-1.366,4.707s.206,3.89-.307,4.2-.429,2.661-.429,2.661.307,2.249-.871,2.61-.981,1.126-.981,1.126-6.549,1.074-7.623-1.793.41-3.63.491-3.836.9-.562.181-1.383.92-3.068.92-3.068.258-3.171.716-3.274.309-4.707.309-4.707l.51-4.81s.667-10.745.513-11.155a6.814,6.814,0,0,1,.461-3.434c.513-.981.92-9.928.92-9.928s-.1-4.4.307-5.217a15.2,15.2,0,0,0,.407-3.7c.044-1.111.054-2.031.054-2.031l5.729-2.148,7.358-2.352,6.19,2.968,9.058,1.739.113,1.562,1.729,23.867.981,9s.41,4.245.461,5.013.562,5.783.562,5.783,1.074,2.4.41,3.223a1.553,1.553,0,0,0-.41,1.472S903.254,629.861,902.793,630.935Z" transform="translate(-658.318 -443.036)" fill="#3f3d56"/>
      <path id="Path_44" data-name="Path 44" d="M936.2,351.739a3.807,3.807,0,0,0-.419,2.894,7.2,7.2,0,0,1-8.724-.326h0c-.155-1.04-.334-1.8-.334-1.8S937.884,349.321,936.2,351.739Z" transform="translate(-706.412 -275.029)" opacity="0.1"/>
      <path id="Path_45" data-name="Path 45" d="M931.772,319.656a7.152,7.152,0,1,1-2.095-5.092A7.186,7.186,0,0,1,931.772,319.656Z" transform="translate(-699.383 -246.041)" fill="#c37098"/>
      <path id="Path_46" data-name="Path 46" d="M900.729,350.02l-2.355,41.928-12.79-2.686-2.534-16.808,2.509-22.564,1.888.243,3.331.424,3.3.2,3.576-.4Z" transform="translate(-666.846 -264.662)" opacity="0.1"/>
      <path id="Path_47" data-name="Path 47" d="M900.729,351.278l-2.355,41.928-12.79-2.686-2.534-16.808,2.509-22.562,1.888.24,3.331.424,3.3.2,3.576-.4Z" transform="translate(-666.846 -265.615)" fill="#6c63ff"/>
      <path id="Path_48" data-name="Path 48" d="M939.23,396.3l4.606.155-1.295,1.813s.091,3.662.706,4.712.434,17.267.434,17.267l-1.226,2.328-2.1-2.61.027-21.411Z" transform="translate(-715.85 -309.467)" fill="#3f3d56"/>
      <path id="Path_49" data-name="Path 49" d="M939.23,396.3l4.606.155-1.295,1.813s.091,3.662.706,4.712.434,17.267.434,17.267l-1.226,2.328-2.1-2.61.027-21.411Z" transform="translate(-715.85 -309.467)" opacity="0.1"/>
      <path id="Path_50" data-name="Path 50" d="M928.447,336.86l-4.3,4.758,2.455,2.558,4.069-3.966Z" transform="translate(-698.018 -254.704)" opacity="0.1"/>
      <path id="Path_51" data-name="Path 51" d="M928.447,335.61l-4.3,4.758,2.455,2.558,4.069-3.966Z" transform="translate(-698.018 -253.759)" fill="#6c63ff"/>
      <path id="Path_52" data-name="Path 52" d="M902.1,341.939l-4.351-4.349-.41,2.276,2,4.989Z" transform="translate(-677.609 -255.256)" opacity="0.1"/>
      <path id="Path_53" data-name="Path 53" d="M902.728,340.689l-4.349-4.349-.41,2.276,2,4.989Z" transform="translate(-678.085 -254.311)" fill="#6c63ff"/>
      <path id="Path_54" data-name="Path 54" d="M916.282,578.849a21.233,21.233,0,0,1-6.622,1.915c-4.221.537-6.983-4.834-6.983-4.834l-1.611,2.1c-.513,2.227-8.314,2.789-11.486,1.945a5.074,5.074,0,0,1-1.82-.861c.044-1.111.054-2.031.054-2.031l5.729-2.148,7.358-2.352,6.19,2.968,9.058,1.739Z" transform="translate(-677.168 -442.705)" opacity="0.1"/>
      <path id="Path_55" data-name="Path 55" d="M927.683,391.32l-2.352,41.925-12.793-2.686L910,413.754l2.507-22.564,1.889.245a22.942,22.942,0,0,1-.277,2.453c-.307,1.435,1.587,11.616,1.587,11.616s3.6,11.417,5.217,9.771,3.924-10.335,3.924-10.335c1.562-3.223.027-12.263-.088-12.445a3.659,3.659,0,0,1-.147-.822Z" transform="translate(-693.801 -305.655)" opacity="0.1"/>
      <path id="Path_56" data-name="Path 56" d="M998.871,509.335l.108,4.108-1.182,1.072-.8-9.945h1.766Z" transform="translate(-759.615 -391.287)" opacity="0.1"/>
      <path id="Path_57" data-name="Path 57" d="M890.8,493.1h0a5.7,5.7,0,0,1-.14.981c0-.091,0-.142-.02-.15C890.565,493.912,890.653,493.537,890.8,493.1Z" transform="translate(-679.109 -382.586)" opacity="0.1"/>
      <path id="Path_58" data-name="Path 58" d="M889.591,502.087l-.807,9.938s-1.209-1.1-2.774-2.524l.186-1.761s.66-4.326.9-6.46a3.943,3.943,0,0,0,.422.807Z" transform="translate(-675.64 -388.802)" opacity="0.1"/>
      <path id="Path_59" data-name="Path 59" d="M882.9,375.225s-.765-1.126-1.815,1.047a21.949,21.949,0,0,1-3.679,1.766c-.942.179-4.292,1.356-4.292,1.356a2.963,2.963,0,0,1-1.739.562c-1.05,0-1.92,2.3-1.793,3.556s-.076,2.175-1.047,2.227-.437,2.07-.437,2.07l6.473,7.419s.41,6.831.206,7.037a6.059,6.059,0,0,0-.768,2.276c.179.069-.981,7.623-.981,7.623l-1.56,14.659s0,2.453,3.174,3.3,10.98.287,11.483-1.94l1.611-2.1s2.762,5.374,6.983,4.837a20.3,20.3,0,0,0,6.909-2.073l-.461-17.568-.307-12.663,6.59-10.828s-1.766-3.377-1.611-4.905.459-2.686-3.3-3.223a14.437,14.437,0,0,1-5.04-1.766,14.405,14.405,0,0,0-3.605-1.815s-1.055-1.962-1.788-1.29a24.113,24.113,0,0,1,.674,3.188,10.553,10.553,0,0,0,.231,2.482c.115.194,1.651,9.222.088,12.445,0,0-2.293,8.69-3.924,10.335s-5.217-9.771-5.217-9.771-1.893-10.183-1.587-11.616S882.9,375.225,882.9,375.225Z" transform="translate(-662.217 -293.198)" fill="#3f3d56"/>
      <circle id="Ellipse_7" data-name="Ellipse 7" cx="1.126" cy="1.126" r="1.126" transform="translate(225.031 113.308)" fill="#3f3d56"/>
      <circle id="Ellipse_8" data-name="Ellipse 8" cx="1.126" cy="1.126" r="1.126" transform="translate(225.031 118.586)" fill="#3f3d56"/>
      <circle id="Ellipse_9" data-name="Ellipse 9" cx="1.126" cy="1.126" r="1.126" transform="translate(225.031 113.308)" opacity="0.1"/>
      <circle id="Ellipse_10" data-name="Ellipse 10" cx="1.126" cy="1.126" r="1.126" transform="translate(225.031 118.586)" opacity="0.1"/>
      <path id="Path_60" data-name="Path 60" d="M992.47,804.34s4.621.358,5.079.716S992.47,804.34,992.47,804.34Z" transform="translate(-756.196 -617.976)" stroke="#6c63ff" stroke-miterlimit="10" stroke-width="1" opacity="0.1"/>
      <path id="Path_61" data-name="Path 61" d="M880.3,789.53s.981,1.226.564,1.79S880.3,789.53,880.3,789.53Z" transform="translate(-671.319 -606.798)" stroke="#6c63ff" stroke-miterlimit="10" stroke-width="1" opacity="0.1"/>
      <path id="Path_62" data-name="Path 62" d="M885.1,805.519s1.79-1.177,2.507-.395S885.1,805.519,885.1,805.519Z" transform="translate(-674.95 -618.365)" stroke="#6c63ff" stroke-miterlimit="10" stroke-width="1" opacity="0.1"/>
      <path id="Path_63" data-name="Path 63" d="M931.787,319.664a7.149,7.149,0,0,1-.231,1.817.817.817,0,0,1-.476-.8c.032-.292.226-.559.184-.849-.061-.446-.6-.628-.885-.981a2.283,2.283,0,0,1-.245-1.6c.029-.552-.11-1.226-.628-1.415-.155-.056-.324-.061-.473-.125-.407-.172-.532-.677-.8-1.025a2.12,2.12,0,0,0-2.453-.353,11.653,11.653,0,0,1-1.1.461,1.442,1.442,0,0,1-1.155-.086c-.162-.1-.292-.245-.459-.348a1.584,1.584,0,0,0-1.761.429,6.087,6.087,0,0,1-1.472,1.268c-.272.123-.608.2-.736.461a.966.966,0,0,0-.078.459,13.718,13.718,0,0,1-.086,2.857c-.128.6-.549,1.283-1.16,1.209a1.145,1.145,0,0,1-.223-.056,7.186,7.186,0,1,1,14.25-1.329Z" transform="translate(-699.397 -246.038)" opacity="0.1"/>
      <path id="Path_64" data-name="Path 64" d="M908.4,305.139c.184.042.358.137.547.162.611.074,1.033-.608,1.16-1.209a13.234,13.234,0,0,0,.088-2.857.934.934,0,0,1,.076-.459c.14-.265.476-.338.736-.461a6.353,6.353,0,0,0,1.472-1.268,1.567,1.567,0,0,1,1.759-.429c.164.1.3.245.459.348a1.472,1.472,0,0,0,1.158.086c.38-.113.736-.312,1.1-.461a2.13,2.13,0,0,1,2.453.351c.272.351.4.854.8,1.025.15.064.319.071.473.128.518.194.65.863.628,1.415a2.378,2.378,0,0,0,.245,1.6c.284.348.824.53.885.981.039.289-.152.559-.184.849a.814.814,0,0,0,.768.868c.638,0,1.033-.714,1.629-.942a1.936,1.936,0,0,0,.736-.3.812.812,0,0,0,.152-.665c-.12-.939-.873-1.756-.792-2.7.076-.9.912-1.69.736-2.578a2.09,2.09,0,0,0-.49-.876,2.835,2.835,0,0,0-1-.846,10.3,10.3,0,0,1-1.047-.361c-.927-.508-.925-1.832-1.472-2.735a2.4,2.4,0,0,0-2.237-1.114c-.689.069-1.315.434-2,.557a5.175,5.175,0,0,1-2.767-.491,7.567,7.567,0,0,0-2.73-.736,2.328,2.328,0,0,0-2.266,1.388c-.152.491-.076,1.015-.194,1.508a3.293,3.293,0,0,1-1.761,1.933c-.537.3-1.182.643-1.246,1.253a2.584,2.584,0,0,0,.307,1.111,2.828,2.828,0,0,1-.015,1.962c-.179.464-.478.871-.66,1.332a2.392,2.392,0,0,0,.064,1.962,1.83,1.83,0,0,0,1.121.92C907.584,305.5,907.888,305.026,908.4,305.139Z" transform="translate(-690.585 -230.577)" fill="#3f3d56"/>
      <g id="Group_2" data-name="Group 2" transform="translate(215.151 67.236)" opacity="0.1">
        <path id="Path_65" data-name="Path 65" d="M910.108,335.52c-.128.6-.552,1.283-1.163,1.209-.189-.025-.36-.12-.547-.162-.513-.113-.817.368-1.3.245a1.835,1.835,0,0,1-1.123-.92,2.123,2.123,0,0,1-.228-.8,2.239,2.239,0,0,0,.228,1.263,1.835,1.835,0,0,0,1.123.92c.491.113.787-.368,1.3-.245a5.543,5.543,0,0,0,.547.159c.611.076,1.035-.606,1.163-1.207a7.09,7.09,0,0,0,.118-1.611A6.037,6.037,0,0,1,910.108,335.52Z" transform="translate(-905.733 -329.798)"/>
        <path id="Path_66" data-name="Path 66" d="M908.412,317.97a2.821,2.821,0,0,0-.162-1.185,6.273,6.273,0,0,1-.282-.775,1.118,1.118,0,0,0-.024.125,2.628,2.628,0,0,0,.307,1.111,2.81,2.81,0,0,1,.162.724Z" transform="translate(-907.398 -315.941)"/>
        <path id="Path_67" data-name="Path 67" d="M983.974,318.73c-.115.7-.679,1.351-.736,2.085a1.752,1.752,0,0,0,0,.378C983.361,320.336,984.119,319.579,983.974,318.73Z" transform="translate(-964.222 -317.994)"/>
        <path id="Path_68" data-name="Path 68" d="M976.359,339.83a.577.577,0,0,1-.14.275c-.182.194-.491.208-.736.3-.6.228-.981.949-1.629.942a.822.822,0,0,1-.736-.569,1.274,1.274,0,0,0-.034.162.814.814,0,0,0,.768.866c.64,0,1.033-.714,1.629-.939.245-.1.544-.11.736-.3a.812.812,0,0,0,.152-.665C976.366,339.872,976.361,339.852,976.359,339.83Z" transform="translate(-956.565 -333.919)"/>
        <path id="Path_69" data-name="Path 69" d="M970.325,333.505c-.061-.446-.6-.628-.885-.981a1.344,1.344,0,0,1-.27-.8,1.811,1.811,0,0,0,.27,1.266c.282.343.711.491.849.844A.788.788,0,0,0,970.325,333.505Z" transform="translate(-953.606 -327.798)"/>
        <path id="Path_70" data-name="Path 70" d="M934.983,318.867c.02-.552-.113-1.226-.63-1.415-.152-.056-.321-.064-.471-.125-.407-.172-.535-.677-.8-1.025a2.125,2.125,0,0,0-2.453-.353c-.368.15-.719.348-1.1.461a1.442,1.442,0,0,1-1.155-.086c-.162-.1-.294-.245-.459-.348a1.582,1.582,0,0,0-1.761.429,6.094,6.094,0,0,1-1.472,1.268c-.275.123-.608.2-.75.461a.964.964,0,0,0-.076.459v.287a.7.7,0,0,1,.071-.284c.142-.265.476-.338.751-.461a6.352,6.352,0,0,0,1.472-1.268,1.57,1.57,0,0,1,1.761-.429c.164.1.3.245.459.346a1.432,1.432,0,0,0,1.155.086,11.339,11.339,0,0,0,1.1-.459,2.126,2.126,0,0,1,2.453.351c.27.348.4.854.8,1.025.15.064.319.071.471.128a1.177,1.177,0,0,1,.623,1.094Z" transform="translate(-919.405 -315.727)"/>
      </g>
      <g id="Group_3" data-name="Group 3" transform="translate(218.656 71.002)" opacity="0.1">
        <path id="Path_71" data-name="Path 71" d="M920,333.07a1.881,1.881,0,0,1,1.418-1.759,5.886,5.886,0,0,1,3.306.15c2.328.77-.294,3.542-.294,3.542s-1.744,1.717-3.37.518a2.548,2.548,0,0,1-.949-1.472A3.754,3.754,0,0,1,920,333.07Z" transform="translate(-919.997 -331.144)"/>
        <path id="Path_72" data-name="Path 72" d="M954.669,333.072a1.881,1.881,0,0,0-1.42-1.759,5.886,5.886,0,0,0-3.3.15c-2.328.77.294,3.542.294,3.542s1.741,1.717,3.37.518a2.548,2.548,0,0,0,.949-1.472A3.754,3.754,0,0,0,954.669,333.072Z" transform="translate(-941.873 -331.145)"/>
        <path id="Path_73" data-name="Path 73" d="M910.5,291.412v.115h4.25v-.137Z" transform="translate(-906.215 -291.32)"/>
        <path id="Path_74" data-name="Path 74" d="M942.638,334.452h.135v-.39a1.117,1.117,0,0,1,1.148,0v.348h.245v-.228h-.12s.049-.473-.75-.4c0,0-.643-.061-.628.346h-.147Z" transform="translate(-936.996 -333.131)"/>
      </g>
      <path id="Path_75" data-name="Path 75" d="M920,332.424a1.881,1.881,0,0,1,1.418-1.759,5.918,5.918,0,0,1,3.306.15c2.328.773-.294,3.542-.294,3.542s-1.744,1.717-3.37.517a2.534,2.534,0,0,1-.949-1.472A3.733,3.733,0,0,1,920,332.424Z" transform="translate(-701.322 -259.654)" fill="#6c63ff"/>
      <path id="Path_76" data-name="Path 76" d="M954.669,332.424a1.881,1.881,0,0,0-1.42-1.759,5.908,5.908,0,0,0-3.3.15c-2.328.773.294,3.542.294,3.542s1.741,1.717,3.37.518a2.533,2.533,0,0,0,.949-1.472A3.731,3.731,0,0,0,954.669,332.424Z" transform="translate(-723.375 -259.654)" fill="#6c63ff"/>
      <path id="Path_77" data-name="Path 77" d="M910.5,290.782v.118h4.25v-.14Z" transform="translate(-687.55 -219.833)" fill="#6c63ff"/>
      <path id="Path_78" data-name="Path 78" d="M942.638,333.823h.135v-.39a1.123,1.123,0,0,1,1.148,0v.351h.245v-.231h-.12s.049-.471-.75-.4c0,0-.643-.059-.628.346h-.147Z" transform="translate(-718.329 -261.649)" fill="#6c63ff"/>
      <rect id="Rectangle_73" data-name="Rectangle 73" width="1.393" height="31.369" transform="translate(29.141 111.412)" fill="#535461"/>
      <path id="Path_79" data-name="Path 79" d="M127.623,618.227l-.088,1.413-.123,1.994-.052.831-.123,2-.054.831-.123,1.994-1.405,22.68a3.841,3.841,0,0,1-3.833,3.605h-7.3a3.838,3.838,0,0,1-3.831-3.605l-1.413-22.68-.123-1.994-.052-.831-.12-2-.052-.831-.123-1.994-.088-1.413a1.989,1.989,0,0,1,1.987-2.112h14.934a1.987,1.987,0,0,1,1.984,2.117Z" transform="translate(-88.334 -475.912)" fill="#3f3d56"/>
      <path id="Path_80" data-name="Path 80" d="M100.841,590.46l-.123,1.994H82.233l-.123-1.994Z" transform="translate(-61.639 -446.435)" fill="#9d9cb5"/>
      <path id="Path_81" data-name="Path 81" d="M101.2,601.98l-.123,2H82.945l-.125-2Z" transform="translate(-62.175 -455.145)" fill="#9d9cb5"/>
      <path id="Path_82" data-name="Path 82" d="M101.569,613.51l-.123,1.994H83.665l-.125-1.994Z" transform="translate(-62.719 -463.862)" fill="#9d9cb5"/>
      <path id="Path_83" data-name="Path 83" d="M45.314,526.075a36.164,36.164,0,0,1,11.493,15.052,36.221,36.221,0,0,1-17.9-6.205A36.038,36.038,0,0,1,27.41,519.87,36.194,36.194,0,0,1,45.314,526.075Z" transform="translate(-26.97 -402.898)" fill="#6c63ff"/>
      <path id="Path_84" data-name="Path 84" d="M27.46,519.87s10.149,5.641,13.4,10.3,15.981,10.958,15.981,10.958" transform="translate(-27.008 -402.898)" fill="none" stroke="#535461" stroke-miterlimit="10" stroke-width="2"/>
      <path id="Path_85" data-name="Path 85" d="M91.8,486.607a19.666,19.666,0,0,1,6.257,8.192A17.875,17.875,0,0,1,82.06,483.23,19.517,19.517,0,0,1,91.8,486.607Z" transform="translate(-68.216 -375.156)" fill="#6c63ff"/>
      <path id="Path_86" data-name="Path 86" d="M82.06,483.18s5.523,3.066,7.294,5.6,8.7,5.965,8.7,5.965" transform="translate(-68.216 -375.119)" fill="none" stroke="#535461" stroke-miterlimit="10" stroke-width="2"/>
      <path id="Path_87" data-name="Path 87" d="M154.526,506.761a27.192,27.192,0,0,0-6.146,12.859,24.719,24.719,0,0,0,18.37-20.19A27.2,27.2,0,0,0,154.526,506.761Z" transform="translate(-118.271 -387.437)" fill="#6c63ff"/>
      <path id="Path_88" data-name="Path 88" d="M166.75,499.43s-6.607,5.715-8.287,9.654S148.38,519.63,148.38,519.63" transform="translate(-118.271 -387.437)" fill="none" stroke="#535461" stroke-miterlimit="10" stroke-width="2"/>
    </g>
  </g>
</svg>
