<svg xmlns="http://www.w3.org/2000/svg" width="121.999" height="123.446" viewBox="0 0 121.999 123.446">
  <g id="mail" transform="translate(-0.499 0)">
    <g id="Group_35" data-name="Group 35" transform="translate(0.499 0)">
      <path id="Path_280" data-name="Path 280" d="M382.78,167.988l21.6-11.037a9.188,9.188,0,0,0-3.944-7.515L382.78,136.215,371.937,152.1Zm0,0" transform="translate(-282.382 -103.373)" fill="#e6a235" fill-rule="evenodd"/>
      <path id="Path_281" data-name="Path 281" d="M20.392,167.113l15.5-13.827-15.5-17.071L6.139,147.878c-.762.625-1.552,1.245-2.3,1.878A9.427,9.427,0,0,0,.5,156.951Zm0,0" transform="translate(-0.5 -103.373)" fill="#e6a235" fill-rule="evenodd"/>
      <path id="Path_282" data-name="Path 282" d="M147.243,0H87.3A4.3,4.3,0,0,0,83,4.284V75.219l25.38,12.966,3.774,1.928c11.5,5.657,11.954,6.113,23.914,0l3.432-1.757,24.007-12.268V19.427c0-1.01,0-1.857-.042-2.59Zm0,0" transform="translate(-63.112 0)" fill="#eceff1" fill-rule="evenodd"/>
      <path id="Path_283" data-name="Path 283" d="M2.614,288.585l33.148-15.037,10.011-28.194L20.391,232.38.5,222.218v60.424a9.37,9.37,0,0,0,2.114,5.943Zm0,0" transform="translate(-0.499 -168.64)" fill="#ffdda6" fill-rule="evenodd"/>
      <path id="Path_284" data-name="Path 284" d="M317.34,245.525l7.931,28.024L360.6,288.862a9.416,9.416,0,0,0,2.349-6.219V222.219l-21.6,11.037Zm0,0" transform="translate(-240.948 -168.641)" fill="#ffdda6" fill-rule="evenodd"/>
      <path id="Path_285" data-name="Path 285" d="M52.428,318.176,32.172,338.464l-22.9,22.944a9.451,9.451,0,0,0,7.333,3.5h103.1a9.452,9.452,0,0,0,7.1-3.224L83.546,318.346,80.115,320.1c-11.961,6.113-12.417,5.65-23.915,0Zm0,0" transform="translate(-7.155 -241.462)" fill="#fcc368" fill-rule="evenodd"/>
      <path id="Path_286" data-name="Path 286" d="M83,232.425,108.385,245.4l3.773,1.928c11.5,5.651,11.954,6.113,23.915,0l3.431-1.757L163.51,233.3V223.146L139.5,235.421l-3.431,1.751c-11.961,6.113-12.417,5.657-23.915,0l-3.773-1.921L83,222.277Zm0,0" transform="translate(-63.112 -168.685)" fill="#c4cccf" fill-rule="evenodd"/>
      <path id="Path_287" data-name="Path 287" d="M459.188,227.136V273a9.385,9.385,0,0,1-2.356,6.22l9.625,9.642a9.412,9.412,0,0,0,2.35-6.22V222.219Zm0,0" transform="translate(-346.808 -168.641)" fill="#fcc368" fill-rule="evenodd"/>
      <path id="Path_288" data-name="Path 288" d="M126.806,468.279l-9.625-9.642a9.412,9.412,0,0,1-5.49,3.088,9.112,9.112,0,0,1-1.6.142H15.4L9.27,468a9.451,9.451,0,0,0,7.333,3.5h103.1a9.455,9.455,0,0,0,7.1-3.224Zm0,0" transform="translate(-7.155 -348.057)" fill="#e6a235" fill-rule="evenodd"/>
      <path id="Path_289" data-name="Path 289" d="M.5,472.227a9.366,9.366,0,0,0,2.114,5.942l6.13-6.134H.5Zm0,0" transform="translate(-0.5 -358.225)" fill="#fcc368" fill-rule="evenodd"/>
      <path id="Path_290" data-name="Path 290" d="M349.379,12.539a4.307,4.307,0,0,0,4.293,4.3h11.947c-.142-2.754-.754-3.992-3.368-6.824l-5.575-6.056C353.843.875,353.586,0,349.393,0Zm0,0" transform="translate(-265.262 0)" fill="#90a4ae" fill-rule="evenodd"/>
    </g>
    <path id="Path_291" data-name="Path 291" d="M249,135.247H221.339a1.878,1.878,0,1,1,0-3.755H249a1.878,1.878,0,1,1,0,3.755Zm0,0" transform="translate(-166.169 -99.789)" fill="#35505c"/>
    <path id="Path_292" data-name="Path 292" d="M256.9,103.286H221.339a1.878,1.878,0,1,1,0-3.755H256.9a1.878,1.878,0,1,1,0,3.755Zm0,0" transform="translate(-166.169 -75.534)" fill="#35505c"/>
    <path id="Path_293" data-name="Path 293" d="M131.048,106.288a1.88,1.88,0,0,1-1.259-.484l-3.553-3.209a1.878,1.878,0,0,1,2.518-2.787l2.155,1.947,7.356-8.184a1.878,1.878,0,1,1,2.794,2.509l-8.614,9.586a1.881,1.881,0,0,1-1.3.621C131.113,106.288,131.081,106.288,131.048,106.288Zm0,0" transform="translate(-94.952 -70.538)" fill="#8bc34a"/>
    <path id="Path_294" data-name="Path 294" d="M249,208.122H221.339a1.878,1.878,0,1,1,0-3.755H249a1.878,1.878,0,1,1,0,3.755Zm0,0" transform="translate(-166.169 -155.093)" fill="#35505c"/>
    <path id="Path_295" data-name="Path 295" d="M256.9,176.158H221.339a1.878,1.878,0,1,1,0-3.755H256.9a1.878,1.878,0,1,1,0,3.755Zm0,0" transform="translate(-166.169 -130.836)" fill="#35505c"/>
    <path id="Path_296" data-name="Path 296" d="M131.049,179.162a1.877,1.877,0,0,1-1.257-.483l-3.553-3.2a1.878,1.878,0,1,1,2.516-2.789l2.155,1.942,7.357-8.186a1.878,1.878,0,0,1,2.794,2.51l-8.615,9.586a1.882,1.882,0,0,1-1.3.62l-.1,0Zm0,0" transform="translate(-94.952 -125.841)" fill="#8bc34a"/>
  </g>
</svg>
