<svg id="Money" xmlns="http://www.w3.org/2000/svg" width="81" height="81" viewBox="0 0 81 81">
  <circle id="Ellipse_31" data-name="Ellipse 31" cx="40.5" cy="40.5" r="40.5" fill="#e2e2e2"/>
  <g id="money-2" data-name="money" transform="translate(16 16)">
    <g id="Group_15" data-name="Group 15" transform="translate(8.432)">
      <path id="Path_135" data-name="Path 135" d="M120.3,87.7a1.982,1.982,0,0,0-.3-1.046l-1.88-3.027a3.315,3.315,0,0,1-.354-1.5V72.8A10.962,10.962,0,0,0,106.8,61.841h-5.059A10.962,10.962,0,0,0,90.783,72.8v9.326a3.312,3.312,0,0,1-.354,1.5l-1.88,3.027a1.982,1.982,0,0,0-.3,1.046h0a1.972,1.972,0,0,0,1.965,1.965h28.113A1.972,1.972,0,0,0,120.3,87.7Z" transform="translate(-88.253 -55.938)" fill="#88b337"/>
      <path id="Path_136" data-name="Path 136" d="M194.611,5.966l4.216-5.9H185.335l4.216,5.9V7.652h5.059Z" transform="translate(-176.059 -0.063)" fill="#88b337"/>
    </g>
    <path id="Path_137" data-name="Path 137" d="M210.76,126.568l-1.88-3.027a3.315,3.315,0,0,1-.354-1.5v-9.326a10.959,10.959,0,0,0-2.3-6.746c-2.251,12.4-10.178,19.555-17.624,23.61H209.09a1.974,1.974,0,0,0,1.686-3.01Z" transform="translate(-170.58 -95.849)" fill="#6b962a"/>
    <path id="Path_138" data-name="Path 138" d="M220.154,146.329v-.54a2.842,2.842,0,0,0-2.833-2.833h-.54V141.27H215.1v1.686h-.54a2.833,2.833,0,0,0-.995,5.489l1.535.573v3.213h-.54a1.147,1.147,0,0,1-1.147-1.147h0v-.54h-1.686v.54a2.842,2.842,0,0,0,2.833,2.833h2.766a2.833,2.833,0,0,0,1-5.489l-1.535-.573v-3.213h.54a1.147,1.147,0,0,1,1.147,1.147h0v.54Zm-2.428,3.676a1.164,1.164,0,0,1,.742,1.079,1.147,1.147,0,0,1-1.147,1.147h-.54v-2.58Zm-2.631-2.783-.944-.354a1.164,1.164,0,0,1-.742-1.079,1.147,1.147,0,0,1,1.147-1.147h.54Z" transform="translate(-191.485 -127.778)" fill="#fff"/>
    <g id="Group_16" data-name="Group 16" transform="translate(0 1.686)">
      <path id="Path_139" data-name="Path 139" d="M400.518,24.459h0a4.1,4.1,0,0,0-3.373-3.373h0a4.1,4.1,0,0,0,3.373-3.373h0a4.1,4.1,0,0,0,3.373,3.373h0A4.1,4.1,0,0,0,400.518,24.459Z" transform="translate(-359.2 -17.713)" fill="#fdb62f"/>
      <path id="Path_140" data-name="Path 140" d="M3.373,200.969h0A4.1,4.1,0,0,0,0,197.6H0a4.1,4.1,0,0,0,3.373-3.373h0A4.1,4.1,0,0,0,6.746,197.6h0A4.1,4.1,0,0,0,3.373,200.969Z" transform="translate(0 -177.358)" fill="#fdb62f"/>
    </g>
    <path id="Path_141" data-name="Path 141" d="M88.456,268.949a2.53,2.53,0,0,0-3.373-.936l-11.965,5.11a1.692,1.692,0,0,1-.666.135H57.619a1.686,1.686,0,1,1,0-3.373h6.746a5.059,5.059,0,0,0,5.059-5.059H55.393a7.667,7.667,0,0,0-5.978,2.875l-5.287,6.4,5.953,10.911,22.911-5.506a12.166,12.166,0,0,0,2.85-1.046l11.805-6.046A2.529,2.529,0,0,0,88.456,268.949Z" transform="translate(-39.911 -239.529)" fill="#fec9a3"/>
    <path id="Path_142" data-name="Path 142" d="M86.578,379.561l1.9,3.474,22.911-5.506a12.168,12.168,0,0,0,2.85-1.046l6.383-3.28C110.011,376.449,95.929,378.473,86.578,379.561Z" transform="translate(-78.306 -337.551)" fill="#f7bb8f"/>
    <path id="Path_143" data-name="Path 143" d="M0,329.135v15.178H10.962l2.53-2.53L3.373,326.605Z" transform="translate(0 -295.406)" fill="#4398d1"/>
    <path id="Path_144" data-name="Path 144" d="M0,461.651H10.962l2.53-2.53-1.855-2.783A59.639,59.639,0,0,1,0,459.8Z" transform="translate(0 -412.744)" fill="#3e8cc7"/>
    <circle id="Ellipse_32" data-name="Ellipse 32" cx="1.686" cy="1.686" r="1.686" transform="translate(5.903 43.007)" fill="#d9d9d9"/>
  </g>
</svg>
