<svg id="Password" xmlns="http://www.w3.org/2000/svg" width="81" height="81" viewBox="0 0 81 81">
  <circle id="Ellipse_30" data-name="Ellipse 30" cx="40.5" cy="40.5" r="40.5" fill="#e2e2e2"/>
  <g id="login" transform="translate(18 20)">
    <path id="Path_167" data-name="Path 167" d="M44.67,19.63a6.614,6.614,0,0,1-6.631,6.543H7.852A7.836,7.836,0,0,1,5.381,10.9a6.541,6.541,0,0,1,7.187-5.617A11.713,11.713,0,0,1,33.427,7.887a7.81,7.81,0,0,1,8.379,6.419A6.544,6.544,0,0,1,44.67,19.63Z" transform="translate(0 0)" fill="#fbe000"/>
    <path id="Path_168" data-name="Path 168" d="M278.335,19.63a6.614,6.614,0,0,1-6.631,6.543H256V0a11.762,11.762,0,0,1,11.092,7.887,7.81,7.81,0,0,1,8.379,6.419A6.544,6.544,0,0,1,278.335,19.63Z" transform="translate(-233.665)" fill="#fabe2c"/>
    <path id="Path_169" data-name="Path 169" d="M169.322,189.161v7.852h-6.543v-7.852a2.617,2.617,0,1,0-5.235,0v7.852H151v-7.852a9.161,9.161,0,0,1,18.322,0Z" transform="translate(-137.826 -164.296)" fill="#613d5c"/>
    <path id="Path_170" data-name="Path 170" d="M265.161,189.161v7.852h-6.543v-7.852A2.621,2.621,0,0,0,256,186.543V180A9.171,9.171,0,0,1,265.161,189.161Z" transform="translate(-233.665 -164.296)" fill="#4b2746"/>
    <g id="Group_17" data-name="Group 17" transform="translate(10.557 31.408)">
      <path id="Path_171" data-name="Path 171" d="M121,360v13.261h23.556V360Z" transform="translate(-121 -360)" fill="#fabe2c"/>
    </g>
    <path id="Path_172" data-name="Path 172" d="M256,360h11.778v13.261H256Z" transform="translate(-233.665 -328.592)" fill="#ff9100"/>
  </g>
</svg>
