<svg id="read-me" xmlns="http://www.w3.org/2000/svg" width="50" height="50" viewBox="0 0 50 50">
  <circle id="Ellipse_33" data-name="Ellipse 33" cx="25" cy="25" r="25" fill="#382b73"/>
  <circle id="Ellipse_34" data-name="Ellipse 34" cx="21.578" cy="21.578" r="21.578" transform="translate(3.422 3.422)" fill="#473080"/>
  <path id="Path_173" data-name="Path 173" d="M102.7,63.076A5.25,5.25,0,0,0,93.61,59.5H81.57a.882.882,0,0,0-.882.882V87.664a.882.882,0,0,0,.882.882H99.726a.882.882,0,0,0,.882-.882V67.27A5.241,5.241,0,0,0,102.7,63.076Z" transform="translate(-65.648 -47.599)" fill="#382b73"/>
  <path id="Path_174" data-name="Path 174" d="M99.726,92.55H81.57a.882.882,0,0,1-.882-.882V65.647a.882.882,0,0,1,.882-.882H99.726a.882.882,0,0,1,.882.882V91.668A.882.882,0,0,1,99.726,92.55Z" transform="translate(-65.648 -53.077)" fill="#d1d3d4"/>
  <path id="Path_175" data-name="Path 175" d="M99.726,86.55H81.57a.882.882,0,0,1-.882-.882V59.647a.882.882,0,0,1,.882-.882H99.726a.882.882,0,0,1,.882.882V85.668A.882.882,0,0,1,99.726,86.55Z" transform="translate(-65.648 -48.34)" fill="#fff"/>
  <g id="Group_18" data-name="Group 18" transform="translate(17.387 10.425)">
    <path id="Path_176" data-name="Path 176" d="M100.517,106.317h-8.05a.632.632,0,0,1,0-1.263h8.05a.632.632,0,0,1,0,1.263Z" transform="translate(-91.835 -95.309)" fill="#d1d3d4"/>
    <path id="Path_177" data-name="Path 177" d="M98.411,70.735H92.467a.632.632,0,1,1,0-1.263h5.945a.632.632,0,0,1,0,1.263Z" transform="translate(-91.835 -67.218)" fill="#d1d3d4"/>
    <path id="Path_178" data-name="Path 178" d="M98.411,82.783H92.467a.632.632,0,1,1,0-1.263h5.945a.632.632,0,0,1,0,1.263Z" transform="translate(-91.835 -76.73)" fill="#d1d3d4"/>
    <path id="Path_179" data-name="Path 179" d="M106.832,121.33H92.467a.632.632,0,0,1,0-1.263h14.366a.632.632,0,0,1,0,1.263Z" transform="translate(-91.835 -107.162)" fill="#d1d3d4"/>
    <path id="Path_180" data-name="Path 180" d="M106.832,136.344H92.467a.632.632,0,1,1,0-1.263h14.366a.632.632,0,0,1,0,1.263Z" transform="translate(-91.835 -119.015)" fill="#d1d3d4"/>
    <path id="Path_181" data-name="Path 181" d="M106.832,151.358H92.467a.632.632,0,1,1,0-1.263h14.366a.632.632,0,0,1,0,1.263Z" transform="translate(-91.835 -130.868)" fill="#d1d3d4"/>
    <path id="Path_182" data-name="Path 182" d="M106.832,166.372H92.467a.632.632,0,0,1,0-1.263h14.366a.632.632,0,0,1,0,1.263Z" transform="translate(-91.835 -142.721)" fill="#d1d3d4"/>
    <path id="Path_183" data-name="Path 183" d="M146.6,109.255l.013.027Zm.357.257.029,0Z" transform="translate(-135.074 -98.626)" fill="#d1d3d4"/>
    <path id="Path_184" data-name="Path 184" d="M147.372,114.133a.468.468,0,0,1-.056.02A.414.414,0,0,0,147.372,114.133Z" transform="translate(-135.636 -102.477)" fill="#d1d3d4"/>
    <path id="Path_185" data-name="Path 185" d="M142.914,58.765h-4.749a5.248,5.248,0,0,0-.859,8.68v3.513a.488.488,0,0,0,.822.357l2.881-2.69a5.22,5.22,0,0,0,2.786-1.043V59.647a.879.879,0,0,0-.271-.636q-.16-.105-.328-.2A.883.883,0,0,0,142.914,58.765Z" transform="translate(-126.222 -58.765)" fill="#d1d3d4"/>
  </g>
  <circle id="Ellipse_35" data-name="Ellipse 35" cx="5.246" cy="5.246" r="5.246" transform="translate(26.556 8.753)" fill="#ef5a9d"/>
  <path id="Path_186" data-name="Path 186" d="M140.638,78.3a5.247,5.247,0,0,1-5.226-4.778q-.021.231-.021.468a5.246,5.246,0,1,0,10.493,0q0-.237-.021-.468A5.247,5.247,0,0,1,140.638,78.3Z" transform="translate(-108.836 -59.992)" fill="#e43d91"/>
  <path id="Path_187" data-name="Path 187" d="M147.816,96.192A5.226,5.226,0,0,1,144.484,95v3.513a.489.489,0,0,0,.822.357l2.882-2.69q-.184.013-.371.013Z" transform="translate(-116.014 -76.946)" fill="#ef5a9d"/>
  <path id="Path_188" data-name="Path 188" d="M147.333,100.564l-2.026,1.891a.489.489,0,0,1-.822-.357v.808a.488.488,0,0,0,.822.357l2.882-2.69q-.184.013-.371.013Q147.572,100.586,147.333,100.564Z" transform="translate(-116.015 -81.34)" fill="#e43d91"/>
  <path id="Path_189" data-name="Path 189" d="M158.038,59.877h.461a.355.355,0,0,0,.355-.355v-.484a.355.355,0,0,0-.355-.355h-.461a.355.355,0,0,0-.355.355v.484A.355.355,0,0,0,158.038,59.877Z" transform="translate(-126.434 -48.275)" fill="#e43d91"/>
  <path id="Path_190" data-name="Path 190" d="M157.06,71.646a.355.355,0,0,0-.273-.273.355.355,0,0,1-.281-.347V68.149a.355.355,0,0,0-.355-.355h-1.087a.355.355,0,0,0-.354.327.267.267,0,0,0,0,.028v.373a.355.355,0,0,0,.288.349l.05.009a.355.355,0,0,1,.288.349v1.8a.355.355,0,0,1-.281.348h0a.355.355,0,0,0-.28.324c0,.007,0,.015,0,.023V72.1a.355.355,0,0,0,.355.355h1.589a.355.355,0,0,0,.355-.355v-.4a.131.131,0,0,0-.008-.054Z" transform="translate(-124.086 -55.469)" fill="#e43d91"/>
  <path id="Path_191" data-name="Path 191" d="M155.051,64.062h0a.355.355,0,0,0,.281-.348V61.6a.355.355,0,0,0-.288-.349l-.05-.009a.355.355,0,0,1-.288-.349v-.374c0-.2.159-.039.355-.039h1.087a.355.355,0,0,1,.355.355v2.877a.355.355,0,0,0,.281.347c.164.035.281-.157.281.011v.4a.355.355,0,0,1-.355.355h-1.589a.355.355,0,0,1-.355-.355v-.375C154.769,63.926,154.886,64.1,155.051,64.062Zm1.1-4.619h-.461a.355.355,0,0,1-.355-.355v-.439c0-.2.159-.084.355-.084h.461c.2,0,.355-.112.355.084v.439A.355.355,0,0,1,156.151,59.443Z" transform="translate(-124.086 -48.157)" fill="#e7ad27"/>
  <path id="Path_192" data-name="Path 192" d="M155.051,62.679h0a.355.355,0,0,0,.281-.348V60.219a.355.355,0,0,0-.288-.349l-.05-.009a.355.355,0,0,1-.288-.349v-.058a.355.355,0,0,1,.355-.355h1.087a.355.355,0,0,1,.355.355v2.877a.355.355,0,0,0,.281.347.355.355,0,0,1,.281.347v.06a.355.355,0,0,1-.355.355h-1.589a.355.355,0,0,1-.355-.355v-.059A.356.356,0,0,1,155.051,62.679Zm1.1-4.619h-.461a.355.355,0,0,1-.355-.355v-.168a.355.355,0,0,1,.355-.355h.461a.355.355,0,0,1,.355.355V57.7A.355.355,0,0,1,156.151,58.06Z" transform="translate(-124.086 -47.09)" fill="#fede3a"/>
</svg>
