<svg id="Group_1" data-name="Group 1" xmlns="http://www.w3.org/2000/svg" width="280" height="216" viewBox="0 0 280 216">
  <path id="Path_1" data-name="Path 1" d="M302.44,740.978c0,3.314-30.335,3.667-67.671,6-37.3,2.331-67.671-2.686-67.671-6s30.51-9.982,67.671-6C272.105,738.978,302.44,737.664,302.44,740.978Z" transform="translate(-167.099 -531.576)" fill="#e6e6e6"/>
  <path id="Path_2" data-name="Path 2" d="M725.747,124.769H645.538A17.037,17.037,0,0,0,628.9,138.018L588.376,317.084a13.738,13.738,0,0,0,12.765,16.73L683.6,337.86a18.191,18.191,0,0,0,18.811-14.885l22.99-126.6,1.71.487,4.4-24-1.76-.438,6.417-35.339a10.47,10.47,0,0,0-10.417-12.318Z" transform="translate(-456.332 -124.768)" fill="#3f3d56"/>
  <path id="Path_3" data-name="Path 3" d="M672.323,136.395h-9.363a11.773,11.773,0,0,0-11.513,9.233l-38.9,177.563A7.277,7.277,0,0,0,619.2,332l82.19,5.364a9.448,9.448,0,0,0,9.925-7.728l33.2-183.529a8.258,8.258,0,0,0-8.151-9.71h-8.882a3.906,3.906,0,0,0-3.774,2.881h0a3.448,3.448,0,0,1-3.332,2.543H678.205a5.889,5.889,0,0,1-5.881-5.424Z" transform="translate(-472.558 -132.519)" fill="#fff"/>
  <path id="Path_4" data-name="Path 4" d="M528.288,402.841l7.247,14.347,21.668,9.851c2.314,3.911,9.667,4.21,10.2,1.681.6-2.837-8.929-7.4-8.929-7.4l-18.124-12.259L538.766,398.5Z" transform="translate(-412.042 -307.665)" fill="#a0616a"/>
  <path id="Path_5" data-name="Path 5" d="M361.08,575.559l-1.336,10.692,7.751.535.8-11.226Z" transform="translate(-243.511 -384.528)" fill="#a0616a"/>
  <path id="Path_6" data-name="Path 6" d="M524.353,717.408a21,21,0,0,1-1.913-2.339c-1.111-1.537-2.1,6.348-2.1,6.348s-1.069,3.208-.8,4.811,6.415,1.6,7.484,1.336a50.561,50.561,0,0,1,6.415,0h8.019c6.95-3.208,0-5.346,0-5.346-2.138-.267-9.355-6.949-9.355-6.949l-1.6-2.94c-1.069-.267-2.138,3.742-2.138,3.742Z" transform="translate(-405.865 -517.29)" fill="#2f2e41"/>
  <path id="Path_7" data-name="Path 7" d="M300.944,575.96l-1.337,10.692,7.751.535.8-11.226Z" transform="translate(-202.804 -384.796)" fill="#a0616a"/>
  <path id="Path_8" data-name="Path 8" d="M464.216,717.809a21,21,0,0,1-1.913-2.339c-1.111-1.537-2.1,6.348-2.1,6.348s-1.069,2.94-.8,4.544,6.415,1.6,7.484,1.336,6.415.267,6.415.267h8.019c6.949-3.207,0-5.346,0-5.346-2.138-.267-9.355-6.95-9.355-6.95l-1.6-2.94c-1.069-.267-2.138,3.742-2.138,3.742Z" transform="translate(-365.119 -517.557)" fill="#2f2e41"/>
  <path id="Path_9" data-name="Path 9" d="M476.329,492.671c-1.069,1.336-.535,5.88-.535,5.88s-1.871,14.7-1.069,16.037-.535,2.406-1.336,4.277a42.7,42.7,0,0,0-1.6,6.415c-4.544,3.742-4.277,20.848-4.277,20.848l-1.6,15.235c.535,1.6,8.019,1.871,9.088,1.6s4.277-24.323,4.277-24.323l7.217-13.632s-.534,36.351-.534,37.955,7.217.8,8.821.8,1.6-26.729,1.6-26.729l1.6-6.949,8.553-31.807v-3.742l-1.336-1.871S477.4,491.335,476.329,492.671Z" transform="translate(-369.757 -370.467)" fill="#2f2e41"/>
  <ellipse id="Ellipse_1" data-name="Ellipse 1" cx="8.286" cy="8.286" rx="8.286" ry="8.286" transform="translate(109.912 45.6)" fill="#a0616a"/>
  <path id="Path_10" data-name="Path 10" d="M522.968,298.615c-1.68,3.74-.685,8.964,2.673,14.7L512.009,306.9l2.138-1.871-.535-5.346Z" transform="translate(-400.634 -240.902)" fill="#a0616a"/>
  <path id="Path_11" data-name="Path 11" d="M502.656,320a8.553,8.553,0,0,1,3.466,5,47.34,47.34,0,0,1,2.034,11.31L508.8,347.8l8.019,30.471c-6.949,5.88-10.959,4.544-20.314-.267s-10.424,1.6-10.424,1.6-.8-.267,0-1.069,0,0-.8-.8,0,0,.267-.8,0-.267-.267-.535,1.069-2.673,1.069-2.673l-2.138-20.047-2.673-28.333c3.207-4.009,12.3-7.484,12.3-7.484l8.286,5.88c2.673,1.069.535-3.207.535-3.207Z" transform="translate(-380.285 -253.843)" fill="#fff"/>
  <path id="Path_12" data-name="Path 12" d="M466.172,391.226,465.1,407.263l13.632,19.512c0,4.544,2.406,5.613,2.406,5.613a35.328,35.328,0,0,0,2.406-4.544,5.188,5.188,0,0,0-.8-5.346l-9.355-19.779,4.009-9.89Z" transform="translate(-368.935 -302.823)" fill="#a0616a"/>
  <path id="Path_13" data-name="Path 13" d="M471.251,339.609c-4.544,1.6-5.346,18.978-5.346,18.978,5.346-2.94,11.761,1.871,11.761,1.871s1.336-4.544,2.94-10.424a10.215,10.215,0,0,0-2.138-9.622S475.8,338,471.251,339.609Z" transform="translate(-369.435 -267.928)" fill="#e6e6e6"/>
  <path id="Path_14" data-name="Path 14" d="M507.067,266.5c1.055-.844,2.494.69,2.494.69l.844-7.595s5.274.633,8.65-.211,3.9,3.059,3.9,3.059a27.068,27.068,0,0,0,.106-4.747c-.211-1.9-2.953-3.8-7.806-5.063s-7.384,4.219-7.384,4.219C504.5,258.536,506.013,267.34,507.067,266.5Z" transform="translate(-396.478 -210.055)" fill="#2f2e41"/>
  <path id="Path_15" data-name="Path 15" d="M756.583,305.088a.675.675,0,0,0,.688-.546L775.7,204.231a.667.667,0,0,0-.648-.787l-83.847-.977H691.2a.67.67,0,0,0-.651.521l-21.726,97.056a.666.666,0,0,0,.618.811Z" transform="translate(-510.175 -176.566)" fill="#e6e6e6"/>
  <path id="Path_16" data-name="Path 16" d="M711.015,529.535a.333.333,0,0,0-.324.258l-.774,3.319a.333.333,0,0,0,.3.408l43.746,3.109a.336.336,0,0,0,.351-.269l.745-3.84a.333.333,0,0,0-.307-.4l-43.716-2.589Z" transform="translate(-535.363 -395.141)" fill="#e6e6e6"/>
  <path id="Path_17" data-name="Path 17" d="M760.256,570.967a.335.335,0,0,0,.35-.253l.948-3.848a.334.334,0,0,0-.3-.412l-55.865-3.907a.33.33,0,0,0-.343.238l-.985,3.325a.333.333,0,0,0,.293.427Z" transform="translate(-531.726 -417.195)" fill="#e6e6e6"/>
  <path id="Path_18" data-name="Path 18" d="M751.256,607.967a.333.333,0,0,0,.35-.253l.948-3.848a.334.334,0,0,0-.3-.413l-55.865-3.907a.33.33,0,0,0-.343.238l-.985,3.325a.333.333,0,0,0,.293.427Z" transform="translate(-525.615 -441.91)" fill="#e6e6e6"/>
  <path id="Path_19" data-name="Path 19" d="M717.857,665.148a.33.33,0,0,0,.355-.251l2-8.017a.334.334,0,0,0-.3-.413l-34.307-2.886a.339.339,0,0,0-.353.26l-1.71,7.695a.334.334,0,0,0,.294.4Z" transform="translate(-517.272 -478.132)" fill="#6c63ff"/>
</svg>
