<svg id="innovation" xmlns="http://www.w3.org/2000/svg" width="46" height="46" viewBox="0 0 46 46">
  <g id="Group_25" data-name="Group 25" transform="translate(32.645 32.645)">
    <g id="Group_24" data-name="Group 24">
      <path id="Path_225" data-name="Path 225" d="M51.677,58.355a6.677,6.677,0,1,1,6.677-6.677A6.685,6.685,0,0,1,51.677,58.355Z" transform="translate(-45 -45)" fill="#f0bc5e"/>
    </g>
  </g>
  <g id="Group_27" data-name="Group 27" transform="translate(0 0)">
    <g id="Group_26" data-name="Group 26">
      <path id="Path_226" data-name="Path 226" d="M7.677,14.355a6.677,6.677,0,1,1,6.677-6.677A6.685,6.685,0,0,1,7.677,14.355Z" transform="translate(-1 -1)" fill="#f0bc5e"/>
    </g>
  </g>
  <g id="Group_28" data-name="Group 28" transform="translate(13.355 10.387)">
    <path id="Path_227" data-name="Path 227" d="M38.29,27.4v-5.5l-1.355-.479q-.069-.175-.145-.349l.62-1.3-3.889-3.891-1.3.62c-.115-.051-.232-.1-.349-.145L31.4,15h-5.5l-.478,1.355q-.176.069-.349.145l-1.3-.62L19.88,19.771l.62,1.3c-.051.116-.1.233-.145.349L19,21.894v5.5l1.355.479q.069.175.145.349l-.62,1.3,3.889,3.889,1.3-.62c.116.051.232.1.349.145l.478,1.355h5.5l.478-1.355q.175-.069.349-.145l1.3.62,3.889-3.889-.62-1.3c.051-.116.1-.233.145-.349Zm-9.645,2.442a5.194,5.194,0,1,1,5.194-5.194A5.194,5.194,0,0,1,28.645,29.839Z" transform="translate(-19 -15)" fill="#f0bc5e"/>
  </g>
  <g id="Group_29" data-name="Group 29" transform="translate(2.968 39.323)">
    <path id="Path_228" data-name="Path 228" d="M5,54h8.9v3.71H5Z" transform="translate(-5 -54)" fill="#f0bc5e"/>
  </g>
  <g id="Group_30" data-name="Group 30" transform="translate(0)">
    <path id="Path_229" data-name="Path 229" d="M51.3,54.22l-.959-.959L49.293,54.31,51.3,56.318l4.976-4.976-1.049-1.049Z" transform="translate(-13.463 -13.721)"/>
    <path id="Path_230" data-name="Path 230" d="M12.278,7.342,11.228,6.293,7.3,10.22l-.959-.959L5.293,10.31,7.3,12.318Z" transform="translate(-2.108 -2.366)"/>
    <path id="Path_231" data-name="Path 231" d="M30.968,24a2.968,2.968,0,1,0,2.968,2.968A2.971,2.971,0,0,0,30.968,24Zm0,4.452a1.484,1.484,0,1,1,1.484-1.484A1.485,1.485,0,0,1,30.968,28.452Z" transform="translate(-7.968 -6.935)"/>
    <path id="Path_232" data-name="Path 232" d="M29.935,20a5.935,5.935,0,1,0,5.935,5.935A5.942,5.942,0,0,0,29.935,20Zm0,10.387a4.452,4.452,0,1,1,4.452-4.452A4.456,4.456,0,0,1,29.935,30.387Z" transform="translate(-6.935 -5.903)"/>
    <path id="Path_233" data-name="Path 233" d="M5,53h8.9v1.484H5Z" transform="translate(-2.032 -14.419)"/>
    <path id="Path_234" data-name="Path 234" d="M15,57h1.484v1.484H15Z" transform="translate(-4.613 -15.452)"/>
    <path id="Path_235" data-name="Path 235" d="M5,57h5.935v1.484H5Z" transform="translate(-2.032 -15.452)"/>
    <path id="Path_236" data-name="Path 236" d="M42.548,1V2.484H39.581V3.968H36.613v6.37L34.34,12.611a13.338,13.338,0,0,0-23.591,6.744c-.039.313-.064.625-.081.936H9.161a.743.743,0,0,1-.742-.742V14.311a6.309,6.309,0,0,1-1.484,0v5.237a2.229,2.229,0,0,0,2.226,2.226h1.514A13.362,13.362,0,0,0,11.7,26.226H8.419a2.229,2.229,0,0,0-2.226,2.226v8.161H3.226A2.229,2.229,0,0,0,1,38.839v5.935A2.229,2.229,0,0,0,3.226,47H13.613a2.229,2.229,0,0,0,2.226-2.226V38.839a2.229,2.229,0,0,0-2.226-2.226V35.3a1.659,1.659,0,0,0-3.143-.742L9.445,36.613H7.677V28.452a.742.742,0,0,1,.742-.742h4.006a13.313,13.313,0,0,0,4.6,4.71,2.219,2.219,0,0,0,.461,4.107,2.207,2.207,0,0,0,1.484,2.968,2.206,2.206,0,0,0,1.321,2.917v.878a3.71,3.71,0,1,0,7.419,0v-.878a2.206,2.206,0,0,0,1.321-2.917,2.207,2.207,0,0,0,1.484-2.968,2.218,2.218,0,0,0,.46-4.107A13.335,13.335,0,0,0,37.33,21.774h1.508a.743.743,0,0,1,.742.742V33.689a6.31,6.31,0,0,1,1.484,0V22.516a2.229,2.229,0,0,0-2.226-2.226H37.316a13.352,13.352,0,0,0-2.094-6.463l2.44-2.44H47V1ZM10.362,38.1l1.435-2.87a.182.182,0,0,1,.332.077V38.1h1.484a.742.742,0,0,1,.742.742v5.935a.742.742,0,0,1-.742.742H3.226a.742.742,0,0,1-.742-.742V38.839a.742.742,0,0,1,.742-.742ZM24,45.516a2.229,2.229,0,0,1-2.226-2.226v-.742h4.452v.742A2.229,2.229,0,0,1,24,45.516Zm2.968-4.452H21.032a.742.742,0,1,1,0-1.484h5.935a.742.742,0,1,1,0,1.484ZM28.452,38.1h-8.9a.742.742,0,1,1,0-1.484h8.9a.742.742,0,1,1,0,1.484Zm1.134-6.591-.392.209v1.931h.742a.742.742,0,0,1,0,1.484H18.065a.742.742,0,0,1,0-1.484h.742V31.715l-.392-.209a11.871,11.871,0,1,1,11.171,0ZM38.1,9.9V5.452h1.484V9.9H38.1Zm2.968,0V3.968h1.484V9.9Zm4.452,0H44.032V2.484h1.484Z" transform="translate(-1 -1)"/>
  </g>
</svg>
