<svg id="team" xmlns="http://www.w3.org/2000/svg" width="56" height="40.645" viewBox="0 0 56 40.645">
  <path id="Path_93" data-name="Path 93" d="M371.613,205.031v.634a7.227,7.227,0,0,0,.371,2.285l1.436,4.307h2.71v-9.936h-1.806A2.71,2.71,0,0,0,371.613,205.031Z" transform="translate(-330.968 -187.87)" fill="#5a4146"/>
  <path id="Path_94" data-name="Path 94" d="M398.69,199.554l-1.528,5.35-7.226-6.323a1.806,1.806,0,0,1-1.806-1.806h0a2.71,2.71,0,0,1,2.71-2.71h6.323a1.806,1.806,0,0,1,1.806,1.806v1.7A7.223,7.223,0,0,1,398.69,199.554Z" transform="translate(-345.678 -180.517)" fill="#694b4b"/>
  <rect id="Rectangle_85" data-name="Rectangle 85" width="5.419" height="3.998" transform="translate(44.257 27.097)" fill="#e6af78"/>
  <path id="Path_95" data-name="Path 95" d="M404.645,319.594a7.166,7.166,0,0,0,5.419,0v-1.659h-5.419v1.659Z" transform="translate(-360.387 -290.838)" fill="#d29b6e"/>
  <path id="Path_96" data-name="Path 96" d="M362.938,339.213l-4.357-1.245-2.709,1.8-2.71-1.8-4.357,1.245a2.71,2.71,0,0,0-1.965,2.605v6.6a.9.9,0,0,0,.9.9H364a.9.9,0,0,0,.9-.9v-6.6A2.71,2.71,0,0,0,362.938,339.213Z" transform="translate(-308.904 -308.68)" fill="#d5dced"/>
  <path id="Path_97" data-name="Path 97" d="M422.967,364.035h-1.806l.452-9.551h.9Z" transform="translate(-375.097 -323.39)" fill="#afb9d2"/>
  <path id="Path_98" data-name="Path 98" d="M385.29,245.38h0a5.419,5.419,0,0,1-5.419-5.419V238.9a1.807,1.807,0,0,1,.529-1.277l1.638-1.638a1.785,1.785,0,0,1,1.311-.531c2.887.091,5.443.71,6.84,2.074a1.783,1.783,0,0,1,.521,1.279v1.151A5.419,5.419,0,0,1,385.29,245.38Z" transform="translate(-338.323 -217.38)" fill="#f0c087"/>
  <path id="Path_99" data-name="Path 99" d="M382.581,239.125a1.8,1.8,0,0,1,1.915-1.8,19.058,19.058,0,0,1,6.189,1.22,1.746,1.746,0,0,0-.5-1.012c-1.4-1.364-3.953-1.983-6.84-2.074h0a1.785,1.785,0,0,0-1.311.531l-1.638,1.638a1.806,1.806,0,0,0-.529,1.277v1.058a5.418,5.418,0,0,0,3.918,5.2,5.375,5.375,0,0,1-1.208-3.4v-2.64Z" transform="translate(-338.323 -217.379)" fill="#e6af78"/>
  <path id="Path_100" data-name="Path 100" d="M478.968,363.245a2.71,2.71,0,0,1,.794-1.916L482.087,359a2.7,2.7,0,0,1,.494,1.55v6.6a.9.9,0,0,1-.9.9h-2.71v-4.816Z" transform="translate(-426.581 -327.415)" fill="#c7cfe2"/>
  <path id="Path_101" data-name="Path 101" d="M422.516,356.29h-.9a.452.452,0,0,1-.452-.452v-1.355h1.806v1.355A.452.452,0,0,1,422.516,356.29Z" transform="translate(-375.097 -323.39)" fill="#959cb5"/>
  <g id="Group_13" data-name="Group 13" transform="translate(43.259 28.571)">
    <path id="Path_102" data-name="Path 102" d="M399.221,333.926,397.69,335.1a.542.542,0,0,1-.8-.17l-1.373-2.508.553-.843a.361.361,0,0,1,.548-.067Z" transform="translate(-395.512 -331.41)" fill="#c7cfe2"/>
    <path id="Path_103" data-name="Path 103" d="M429.419,333.927l1.531,1.169a.542.542,0,0,0,.8-.17l1.373-2.508-.553-.843a.361.361,0,0,0-.548-.067Z" transform="translate(-425.71 -331.411)" fill="#c7cfe2"/>
  </g>
  <path id="Path_104" data-name="Path 104" d="M18,211.077a32.6,32.6,0,0,1-1.516-7.391,6.547,6.547,0,0,0-6.425-6.323,6.547,6.547,0,0,0-6.425,6.323,32.6,32.6,0,0,1-1.516,7.391.9.9,0,0,0,.47,1.149,17.252,17.252,0,0,0,4.717,1.4h5.507a17.4,17.4,0,0,0,4.717-1.4A.9.9,0,0,0,18,211.077Z" transform="translate(-1.833 -183.454)" fill="#5a4146"/>
  <path id="Path_105" data-name="Path 105" d="M60.759,212.227a.9.9,0,0,0,.47-1.149,32.6,32.6,0,0,1-1.516-7.391,6.547,6.547,0,0,0-6.425-6.323h-.027a2.756,2.756,0,0,0-1.341,5.11,2.5,2.5,0,0,0,.231.123L54.2,213.622h1.837A17.415,17.415,0,0,0,60.759,212.227Z" transform="translate(-45.061 -183.455)" fill="#694b4b"/>
  <path id="Path_106" data-name="Path 106" d="M14.76,315.465,11.837,314a1.806,1.806,0,0,1-1-1.616v-2.71H5.419v2.71a1.806,1.806,0,0,1-1,1.616L1.5,315.465A2.709,2.709,0,0,0,0,317.888v5.338a.9.9,0,0,0,.9.9H15.355a.9.9,0,0,0,.9-.9v-5.338A2.709,2.709,0,0,0,14.76,315.465Z" transform="translate(0 -283.484)" fill="#e6af78"/>
  <path id="Path_107" data-name="Path 107" d="M51.861,313.29a7.139,7.139,0,0,0,2.758-.557,1.78,1.78,0,0,1-.049-.346v-2.71h-5.42v2.71a1.778,1.778,0,0,1-.049.347A7.174,7.174,0,0,0,51.861,313.29Z" transform="translate(-43.731 -283.483)" fill="#d29b6e"/>
  <path id="Path_108" data-name="Path 108" d="M14.76,354.109l-2.082-1.041a5.412,5.412,0,0,1-9.1,0L1.5,354.109A2.709,2.709,0,0,0,0,356.533v5.338a.9.9,0,0,0,.9.9H15.355a.9.9,0,0,0,.9-.9v-5.338A2.71,2.71,0,0,0,14.76,354.109Z" transform="translate(0 -322.129)" fill="#d5dced"/>
  <path id="Path_109" data-name="Path 109" d="M30.5,253.851h0a5.42,5.42,0,0,1-5.374-4.718.911.911,0,0,1,.483-.939,7.54,7.54,0,0,0,1.6-1.08,5.215,5.215,0,0,0,1.236-1.626.894.894,0,0,1,1.018-.495,15.562,15.562,0,0,1,6.131,3.141.874.874,0,0,1,.311.726A5.42,5.42,0,0,1,30.5,253.851Z" transform="translate(-22.366 -225.851)" fill="#f0c087"/>
  <path id="Path_110" data-name="Path 110" d="M35.587,248.134a15.561,15.561,0,0,0-6.131-3.141.894.894,0,0,0-1.018.495,5.17,5.17,0,0,1-.825,1.2v0a4.85,4.85,0,0,1-.41.418,7.537,7.537,0,0,1-1.6,1.08.911.911,0,0,0-.483.939,5.428,5.428,0,0,0,4.553,4.656,3.954,3.954,0,0,1-1.888-3.551v-1.288c.205-.151.412-.3.619-.488a7.191,7.191,0,0,0,1.292-1.524A13.64,13.64,0,0,1,34.4,249.5c.171.15.6.542,1.093,1.008a5.378,5.378,0,0,0,.4-1.647A.874.874,0,0,0,35.587,248.134Z" transform="translate(-22.366 -225.85)" fill="#e6af78"/>
  <path id="Path_111" data-name="Path 111" d="M.551,369.859A2.7,2.7,0,0,0,0,371.487v5.338a.9.9,0,0,0,.9.9h2.71v-4.551a1.806,1.806,0,0,0-.678-1.411Z" transform="translate(0 -337.083)" fill="#c7cfe2"/>
  <path id="Path_112" data-name="Path 112" d="M143.944,328.94l-7.557-2.748L130.968,328l-5.419-1.806-7.557,2.748a3.613,3.613,0,0,0-2.378,3.4v5.6a.9.9,0,0,0,.9.9h28.9a.9.9,0,0,0,.9-.9v-5.6A3.613,3.613,0,0,0,143.944,328.94Z" transform="translate(-102.968 -298.192)" fill="#ff507d"/>
  <path id="Path_113" data-name="Path 113" d="M240.344,359.226l-.86,9.032H243.1l-.86-9.032Z" transform="translate(-213.29 -327.613)" fill="#707487"/>
  <path id="Path_114" data-name="Path 114" d="M244.078,345.756h-1.9a.632.632,0,0,1-.632-.632v-2.415h3.161v2.415A.632.632,0,0,1,244.078,345.756Z" transform="translate(-215.13 -312.903)" fill="#5b5d6e"/>
  <path id="Path_115" data-name="Path 115" d="M351.286,359.855a3.609,3.609,0,0,1,.972,2.462v5.6a.9.9,0,0,1-.9.9h-4.516V365.8a3.612,3.612,0,0,1,1.058-2.555Z" transform="translate(-308.904 -328.173)" fill="#d23c69"/>
  <path id="Path_116" data-name="Path 116" d="M185.032,79.566V72a1.806,1.806,0,0,0-1.806-1.806H172.387a7.226,7.226,0,0,0-7.226,7.226v2.147a9.031,9.031,0,0,0,.464,2.856l.3.9a2.709,2.709,0,0,1,.139.857v.464h18.064v-.464a2.709,2.709,0,0,1,.139-.857l.3-.9A9.029,9.029,0,0,0,185.032,79.566Z" transform="translate(-147.097 -70.193)" fill="#5a4146"/>
  <path id="Path_117" data-name="Path 117" d="M206.452,73.862a3.669,3.669,0,0,0,3.669,3.669h.508l.245,7.113H220.9v-.464a2.71,2.71,0,0,1,.139-.857l.3-.9a9.031,9.031,0,0,0,.464-2.856V72A1.806,1.806,0,0,0,220,70.193h-9.879A3.669,3.669,0,0,0,206.452,73.862Z" transform="translate(-183.871 -70.193)" fill="#694b4b"/>
  <rect id="Rectangle_86" data-name="Rectangle 86" width="10.839" height="8.129" transform="translate(22.58 21.678)" fill="#e6af78"/>
  <path id="Path_118" data-name="Path 118" d="M206.451,271.44a10.776,10.776,0,0,0,10.839,0v-3.054H206.451v3.054Z" transform="translate(-183.87 -246.709)" fill="#d29b6e"/>
  <g id="Group_14" data-name="Group 14" transform="translate(20.774 26.496)">
    <path id="Path_119" data-name="Path 119" d="M197.162,315.753l-2.881,2.881a.9.9,0,0,1-1.358-.093l-2.987-3.936.781-1.646a.9.9,0,0,1,1.29-.382Z" transform="translate(-189.936 -312.443)" fill="#d23c69"/>
    <path id="Path_120" data-name="Path 120" d="M256,315.753l2.881,2.881a.9.9,0,0,0,1.358-.093l2.987-3.936-.781-1.646a.9.9,0,0,0-1.29-.382Z" transform="translate(-248.774 -312.443)" fill="#d23c69"/>
  </g>
  <path id="Path_121" data-name="Path 121" d="M182.451,154.209h0a9.032,9.032,0,0,1-9.032-9.032v-1.058a1.807,1.807,0,0,1,.529-1.277l.748-.748a1.806,1.806,0,0,0,.529-1.277V138.65a.9.9,0,0,1,.688-.878c2.136-.5,8.784-1.7,13.308,1.628a1.159,1.159,0,0,1,.456.936v.48a1.807,1.807,0,0,0,.529,1.277l.748.748a1.806,1.806,0,0,1,.529,1.277v1.058A9.032,9.032,0,0,1,182.451,154.209Z" transform="translate(-154.451 -129.822)" fill="#f0c087"/>
  <path id="Path_122" data-name="Path 122" d="M189.221,139.413c-3.182-2.34-7.408-2.441-10.382-2.121a24.367,24.367,0,0,0-2.925.493.9.9,0,0,0-.688.878v2.165a1.807,1.807,0,0,1-.529,1.277l-.748.748a1.807,1.807,0,0,0-.529,1.277v1.058a9.029,9.029,0,0,0,7.941,8.96,8.995,8.995,0,0,1-2.522-6.25v-6.6a1.808,1.808,0,0,1,1.589-1.794c2.168-.272,6.138-.435,9.25,1.325v-.48A1.159,1.159,0,0,0,189.221,139.413Z" transform="translate(-154.451 -129.835)" fill="#e6af78"/>
  <path id="Path_123" data-name="Path 123" d="M116.585,359.855a3.609,3.609,0,0,0-.972,2.462v5.6a.9.9,0,0,0,.9.9h4.516V365.8a3.613,3.613,0,0,0-1.058-2.555Z" transform="translate(-102.968 -328.173)" fill="#d23c69"/>
</svg>
